<svg width="52" height="64" viewBox="0 0 52 64" fill="none" xmlns="http://www.w3.org/2000/svg">
<path fill-rule="evenodd" clip-rule="evenodd" d="M25.7294 12C25.6728 11.909 25.614 11.8164 25.553 11.7223C22.1552 6.47822 12.0058 -3.50993 7.58925 1.2518C4.31834 4.77834 8.5809 9.09141 12.9312 12H4C1.79086 12 0 13.7909 0 16V60C0 62.2091 1.79086 64 4 64H48C50.2091 64 52 62.2091 52 60V16C52 13.7909 50.2091 12 48 12H40.4379C44.7882 9.09141 49.0508 4.77834 45.7799 1.2518C41.3633 -3.50993 31.214 6.47822 27.8162 11.7223C27.7552 11.8164 27.6963 11.909 27.6398 12H25.7294ZM22.8774 15H28.9912V61H22.8774V15ZM19.8774 15H4C3.44772 15 3 15.4477 3 16V60C3 60.5523 3.44772 61 4 61H19.8774V15ZM31.9912 61V15H48C48.5523 15 49 15.4477 49 16V60C49 60.5523 48.5523 61 48 61H31.9912ZM22.4644 11.6841L22.4934 11.7223H17.355C15.1372 10.5644 12.3702 8.7647 10.5766 6.85444C9.59925 5.81353 9.11447 4.95266 8.97526 4.33586C8.87678 3.89947 8.91066 3.5034 9.4222 2.95189C9.79568 2.54922 10.4234 2.24317 11.9963 2.79852C13.5985 3.36425 15.5367 4.65659 17.4931 6.37346C19.4154 8.06048 21.1883 10.0091 22.4644 11.6841ZM30.8757 11.7223L30.9048 11.6841C32.1809 10.0091 33.9537 8.06048 35.8761 6.37346C37.8325 4.65659 39.7706 3.36425 41.3729 2.79852C42.9457 2.24317 43.5735 2.54922 43.9469 2.95189C44.4585 3.5034 44.4924 3.89947 44.3939 4.33586C44.2547 4.95266 43.7699 5.81353 42.7925 6.85444C40.9989 8.7647 38.232 10.5644 36.0141 11.7223H30.8757Z" fill="#0B0B0B"/>
</svg>
