<svg width="38" height="24" viewBox="0 0 38 24" fill="none" xmlns="http://www.w3.org/2000/svg">
<path fill-rule="evenodd" clip-rule="evenodd" d="M37.9961 23.0609C37.9983 23.5774 37.5692 23.9999 37.0426 23.9998L1.05711 23.9889C0.53055 23.9887 0.0979503 23.5659 0.0958033 23.0494L0.003904 0.939265C0.00175672 0.422649 0.430843 0.000130576 0.957406 0.000290163L36.9429 0.0111964C37.4695 0.0113559 37.9021 0.434136 37.9042 0.950751L37.9961 23.0609Z" fill="#FF6633"/>
<path fill-rule="evenodd" clip-rule="evenodd" d="M32.6535 17.2284C32.5966 17.2283 32.5334 17.2259 32.5049 17.2831C32.4725 17.3482 32.5124 17.403 32.5591 17.4459C32.7097 17.5849 32.9007 17.645 33.0928 17.7004C33.1264 17.7101 33.1765 17.7281 33.1953 17.6916C33.2083 17.6664 33.192 17.6218 33.1794 17.5893C33.105 17.3971 32.8614 17.2314 32.6535 17.2284ZM33.062 14.4386C32.9422 14.3129 32.8219 14.2279 32.6874 14.164C32.5936 14.1193 32.4905 14.0543 32.4677 14.2428C32.458 14.3232 32.3658 14.3431 32.2852 14.3383C32.2073 14.3335 32.1607 14.2889 32.1355 14.2178C32.1029 14.1258 32.1215 14.0424 32.1957 13.9839C32.2994 13.902 32.4212 13.8882 32.5515 13.9205C32.786 13.9788 32.9766 14.1166 33.1352 14.2805C33.2966 14.4472 33.4555 14.368 33.62 14.3322C33.7714 14.2994 33.7631 14.1677 33.7696 14.0493C33.9871 14.0733 34.0705 14.2096 34.0882 14.3894C34.1171 14.6814 33.8897 14.7545 33.6595 14.8325C33.8509 15.0085 34.023 15.1859 34.089 15.4346C34.1649 15.7206 34.1026 15.8696 33.8186 16.0592C34.0359 16.2096 34.1646 16.405 34.1027 16.6712C34.0593 16.8582 33.8986 16.9162 33.7017 16.9412C33.9631 17.1738 34.135 17.4284 34.121 17.7711C34.1139 17.9466 34.0701 18.1024 33.9079 18.1969C33.8206 18.2478 33.8516 18.282 33.9054 18.3317C34.0388 18.4548 34.1194 18.6033 34.1239 18.7871C34.13 19.0377 33.9973 19.183 33.7404 19.1847C33.4109 19.1867 33.1002 19.071 32.7792 19.0186C32.7483 19.0135 32.718 19.0052 32.6873 18.9992C32.3271 18.9294 32.334 18.9295 32.3377 18.5692C32.3391 18.4355 32.3956 18.4311 32.4983 18.4535C32.8227 18.5242 33.1465 18.5983 33.4731 18.6575C33.5764 18.6762 33.7208 18.7531 33.7755 18.5832C33.8157 18.4577 33.6803 18.3057 33.5108 18.2855C33.2082 18.2494 32.9173 18.1845 32.6638 18.0061C32.4089 17.8268 32.2826 17.5867 32.3044 17.2767C32.3192 17.0656 32.4266 16.9652 32.6405 16.9635C32.9705 16.9609 33.2746 17.2127 33.3559 17.589C33.3898 17.7466 33.4655 17.7712 33.6023 17.7571C33.7437 17.7424 33.8164 17.6808 33.8202 17.5347C33.8282 17.2357 33.6008 16.9358 33.3052 16.8717C33.0418 16.8147 32.7791 16.7537 32.5135 16.7095C32.3777 16.6868 32.3255 16.6394 32.3289 16.4965C32.3371 16.1627 32.3289 16.1622 32.6549 16.2305C32.937 16.2897 33.218 16.3548 33.5015 16.4065C33.592 16.4231 33.7232 16.4689 33.7609 16.3396C33.7953 16.2213 33.6956 16.1448 33.5939 16.1023C33.3203 15.9878 33.0219 15.9683 32.737 15.8962C32.6521 15.8748 32.5655 15.8581 32.4787 15.846C32.3686 15.8306 32.3258 15.7829 32.326 15.6652C32.3267 15.3039 32.3208 15.3035 32.6876 15.381C32.9573 15.4379 33.2262 15.499 33.4966 15.5528C33.7335 15.5999 33.8203 15.4999 33.7366 15.2787C33.7106 15.2102 33.6721 15.1455 33.6344 15.0817C33.5343 14.9122 33.3978 14.8536 33.1946 14.9069C32.9655 14.967 32.7277 14.9958 32.4942 15.0402C32.386 15.0607 32.3232 15.0531 32.3227 14.912C32.3214 14.5791 32.3136 14.5799 32.6559 14.519C32.783 14.4964 32.9091 14.4691 33.062 14.4386Z" fill="#FEFEFD"/>
<path fill-rule="evenodd" clip-rule="evenodd" d="M17.1218 20.1245C17.1231 20.4318 17.1268 20.6877 17.1238 20.9435C17.1228 21.0327 17.1709 21.0499 17.2419 21.0396C17.3652 21.022 17.3849 21.0814 17.3862 21.1881C17.3911 21.5968 17.3948 21.5968 16.9819 21.5967C16.7556 21.5966 16.5294 21.5936 16.3033 21.5978C16.2151 21.5994 16.1766 21.5723 16.1827 21.4823C16.1882 21.4026 16.1894 21.3216 16.1815 21.2421C16.1681 21.108 16.1826 21.0086 16.3616 21.0386C16.4456 21.0527 16.4476 20.9917 16.4473 20.9322C16.4449 20.4823 16.4411 20.0324 16.4432 19.5825C16.4437 19.4842 16.4071 19.4456 16.311 19.4583C16.2023 19.4727 16.1751 19.4239 16.1723 19.3218C16.1606 18.9024 16.1591 18.9275 16.586 18.8947C16.9293 18.8683 17.1376 18.9731 17.3072 19.2711C17.5202 19.6453 17.7866 19.9902 18.0633 20.3969C18.062 20.0798 18.0586 19.8189 18.0611 19.558C18.0619 19.4705 18.0152 19.4493 17.9432 19.4597C17.8105 19.4789 17.7907 19.4127 17.7899 19.3006C17.7871 18.903 17.7834 18.903 18.1884 18.9032C18.3957 18.9032 18.6035 18.9107 18.8103 18.9007C18.9469 18.8941 18.9881 18.946 18.9771 19.0712C18.969 19.1629 18.9734 19.2561 18.9771 19.3484C18.9803 19.4251 18.9522 19.4685 18.8698 19.4581C18.7365 19.4411 18.735 19.5205 18.7358 19.6167C18.7407 20.2145 18.7361 20.8124 18.7484 21.4101C18.7517 21.5671 18.6993 21.5883 18.5509 21.6046C18.2507 21.6375 18.0676 21.5363 17.9173 21.2771C17.722 20.9401 17.4818 20.6279 17.26 20.3055C17.2268 20.2572 17.1888 20.212 17.1218 20.1245Z" fill="#FEFEFD"/>
<path fill-rule="evenodd" clip-rule="evenodd" d="M4.41867 19.8443C4.42008 20.1806 4.49787 20.232 4.83347 20.1227C4.9857 20.0731 5.05175 19.9665 5.04552 19.8163C5.03945 19.6711 4.96184 19.5808 4.8135 19.5446C4.48128 19.4636 4.41727 19.5105 4.41867 19.8443ZM4.42266 20.6503C4.42325 20.791 4.42214 20.8806 4.42494 20.9702C4.42571 20.9928 4.43309 21.0301 4.44722 21.0354C4.73919 21.1457 4.52516 21.3808 4.57792 21.5498C4.59762 21.613 4.51138 21.6045 4.46507 21.6048C4.17633 21.6061 3.88739 21.6059 3.59857 21.6045C3.55807 21.6043 3.49427 21.6192 3.49099 21.5613C3.48217 21.4079 3.48085 21.2535 3.4873 21.1001C3.49036 21.0263 3.5643 21.046 3.60679 21.0514C3.73337 21.0677 3.74871 21.0053 3.74712 20.9012C3.74062 20.4763 3.73823 20.0512 3.74198 19.6263C3.74306 19.5129 3.72078 19.4473 3.58881 19.4668C3.49523 19.4806 3.47734 19.4308 3.47267 19.3479C3.44789 18.9117 3.44558 18.9087 3.88711 18.9129C4.23204 18.9163 4.5772 18.8965 4.92219 18.9324C5.31993 18.9737 5.59009 19.1796 5.69405 19.5327C5.80595 19.9128 5.69823 20.322 5.39511 20.5298C5.24068 20.6358 5.24994 20.7012 5.36836 20.8162C5.48007 20.9247 5.55366 21.0396 5.75038 21.0689C5.91865 21.0939 5.79051 21.3189 5.81962 21.4519C5.83098 21.5037 5.8642 21.6021 5.74796 21.6041C5.47315 21.6091 5.19746 21.6626 5.00822 21.3556C4.85869 21.1131 4.64241 20.91 4.42266 20.6503Z" fill="#FEFEFD"/>
<path fill-rule="evenodd" clip-rule="evenodd" d="M15.2291 20.2355C15.2254 19.839 14.9108 19.5261 14.5173 19.5275C14.1142 19.529 13.7907 19.8529 13.7987 20.2471C13.8068 20.6489 14.1287 20.9743 14.5191 20.9757C14.9303 20.977 15.2331 20.6615 15.2291 20.2355ZM15.9182 20.2454C15.9165 21.0368 15.3012 21.6572 14.5178 21.6569C13.7146 21.6566 13.1065 21.0291 13.1112 20.2056C13.1156 19.4428 13.7342 18.8538 14.5268 18.8579C15.2989 18.8619 15.9197 19.4809 15.9182 20.2454Z" fill="#FEFEFD"/>
<path fill-rule="evenodd" clip-rule="evenodd" d="M25.0872 19.7142C25.097 19.8124 25.0329 19.9507 25.2448 19.9376C25.5037 19.9215 25.6111 19.8699 25.6094 19.7162C25.6075 19.5503 25.5019 19.4949 25.2568 19.4766C25.0418 19.4605 25.0892 19.5941 25.0872 19.7142ZM25.0899 20.7601C25.1296 20.8498 24.9915 21.0379 25.2529 21.0293C25.5637 21.0193 25.6922 20.9463 25.6868 20.7475C25.6816 20.5543 25.5716 20.4996 25.278 20.4773C25.0195 20.4577 25.1034 20.626 25.0899 20.7601ZM25.9185 20.1281C26.4078 20.4655 26.4853 20.9993 26.1059 21.3707C25.9493 21.524 25.7535 21.5817 25.5423 21.5856C25.1282 21.5936 24.7138 21.5871 24.2997 21.5938C24.1879 21.5957 24.1569 21.5533 24.1644 21.4533C24.1703 21.3737 24.1719 21.2925 24.163 21.2134C24.1487 21.0849 24.18 21.0101 24.3319 21.0345C24.406 21.0464 24.4284 21.0042 24.4279 20.9363C24.4247 20.4807 24.4218 20.025 24.4229 19.5695C24.4232 19.4798 24.3862 19.4436 24.2997 19.4546C24.1777 19.4701 24.1563 19.4093 24.1543 19.3035C24.1467 18.8984 24.1434 18.8952 24.5647 18.8996C24.8907 18.903 25.2173 18.8791 25.5427 18.9146C25.8337 18.9465 26.0893 19.0431 26.1801 19.3486C26.273 19.6605 26.2091 19.9344 25.9185 20.1281Z" fill="#FEFEFD"/>
<path fill-rule="evenodd" clip-rule="evenodd" d="M22.6626 19.6986C22.6082 19.8727 22.5781 19.998 22.5298 20.1161C22.4675 20.2685 22.5064 20.3088 22.6743 20.3056C22.8336 20.3024 22.8518 20.2573 22.7987 20.1255C22.7489 20.0019 22.7168 19.8716 22.6626 19.6986ZM22.2435 21.0472C22.4634 20.9985 22.4925 21.0856 22.4884 21.2396C22.4791 21.5936 22.4869 21.5939 22.1208 21.5938C21.8883 21.5937 21.6555 21.5887 21.4231 21.5957C21.3136 21.5989 21.2771 21.5602 21.2864 21.4573C21.2929 21.3839 21.294 21.3087 21.2852 21.2357C21.2684 21.0956 21.2966 21.0062 21.4695 21.0364C21.5508 21.0506 21.5736 20.9914 21.597 20.9302C21.7685 20.4812 21.9397 20.0323 22.1165 19.5853C22.1539 19.4905 22.1469 19.4415 22.0318 19.4544C21.9212 19.4667 21.8962 19.4169 21.8929 19.3161C21.879 18.8997 21.8757 18.8998 22.2964 18.9C22.4535 18.9 22.6112 18.9073 22.7677 18.8978C22.887 18.8905 22.9436 18.9312 22.9867 19.0436C23.2189 19.6494 23.4632 20.2507 23.6971 20.8559C23.7435 20.9758 23.789 21.0695 23.9441 21.0397C23.9783 21.0332 24.0298 21.0335 24.0315 21.0834C24.0364 21.2373 24.0363 21.3915 24.0336 21.5454C24.0328 21.5965 23.9855 21.5935 23.9487 21.5936C23.6155 21.5941 23.2823 21.594 22.9491 21.5936C22.9306 21.5936 22.9021 21.5975 22.8945 21.5877C22.7854 21.4453 22.8692 21.2822 22.8447 21.1299C22.8329 21.0563 22.8786 21.0369 22.9471 21.036C22.9876 21.0356 23.068 21.063 23.0463 20.9765C23.0305 20.9131 23.0378 20.8182 22.9257 20.8186C22.7559 20.8191 22.5863 20.8183 22.4165 20.8183C22.2738 20.8184 22.3066 20.9405 22.2435 21.0472Z" fill="#FEFEFD"/>
<path fill-rule="evenodd" clip-rule="evenodd" d="M6.71977 16.3018C6.72157 16.7387 6.72667 17.1757 6.723 17.6124C6.72199 17.7292 6.75944 17.763 6.87668 17.747C7.19126 17.7042 7.39527 17.544 7.46795 17.2369C7.58259 16.7521 7.54326 16.2587 7.51729 15.7675C7.50763 15.5831 7.47255 15.402 7.3944 15.2304C7.29318 15.0081 7.11743 14.8893 6.87671 14.8494C6.75548 14.8293 6.7092 14.8623 6.71182 14.9912C6.72043 15.428 6.71798 15.8649 6.71977 16.3018ZM8.07122 16.3499C8.07867 16.6525 8.0592 16.953 7.99849 17.2495C7.87442 17.8551 7.59469 18.1051 6.96909 18.156C6.76328 18.1727 6.55512 18.1604 6.34832 18.1677C6.25828 18.1708 6.22989 18.1398 6.22973 18.0517C6.22722 16.8819 6.222 15.712 6.21591 14.5421C6.21555 14.4692 6.22921 14.4275 6.31738 14.4298C6.56829 14.4362 6.82019 14.4242 7.07013 14.4419C7.47432 14.4706 7.741 14.6884 7.88183 15.0598C8.04018 15.477 8.06659 15.9119 8.07122 16.3499Z" fill="#FEFEFD"/>
<path fill-rule="evenodd" clip-rule="evenodd" d="M34.0981 21.6522C33.3104 21.3676 32.5232 21.0832 31.7267 20.7955C31.7883 21.1383 32.1702 21.3685 32.5681 21.3237C32.6153 21.3184 32.6699 21.2658 32.7079 21.3122C32.7527 21.3668 32.71 21.4326 32.6862 21.4854C32.6205 21.6314 32.4898 21.6677 32.3415 21.649C31.8502 21.5871 31.3671 20.9083 31.4613 20.4266C31.4839 20.3108 31.5356 20.2802 31.6513 20.286C32.1887 20.3128 32.7266 20.3314 33.2732 20.3307C33.1313 20.27 32.99 20.2076 32.8472 20.149C32.4528 19.9871 32.0577 19.827 31.663 19.6656C31.5261 19.6096 31.4206 19.2439 31.5083 19.1318C31.5423 19.0884 31.5893 19.1065 31.6298 19.1121C32.4198 19.2218 33.2095 19.3337 33.9995 19.4433C34.0731 19.4536 34.1054 19.482 34.1141 19.5596C34.1571 19.9446 34.1422 19.9653 33.7586 19.9167C33.3983 19.871 33.0392 19.8162 32.6697 19.7983C33.0674 19.9622 33.465 20.1266 33.863 20.2899C34.102 20.3878 34.1856 20.56 34.1169 20.8066C34.0879 20.9115 34.0078 20.8675 33.9477 20.8651C33.5146 20.8477 33.0816 20.8262 32.6044 20.8039C32.7946 20.9191 32.9707 20.958 33.1349 21.0217C33.392 21.1216 33.65 21.2226 33.9147 21.2989C34.1101 21.3553 34.16 21.4591 34.0981 21.6522Z" fill="#FEFEFD"/>
<path fill-rule="evenodd" clip-rule="evenodd" d="M7.06928 21.6042C6.79281 21.6042 6.51583 21.5944 6.2401 21.6078C6.08354 21.6153 6.03983 21.5588 6.05727 21.4193C6.06478 21.3586 6.06249 21.2958 6.05677 21.2346C6.04574 21.1153 6.05825 21.0231 6.21947 21.0493C6.30545 21.0631 6.32367 21.0126 6.32309 20.9388C6.31952 20.4889 6.31629 20.0389 6.3184 19.589C6.31892 19.4885 6.27612 19.455 6.18289 19.4667C6.06895 19.481 6.05055 19.4221 6.04771 19.3248C6.03559 18.9108 6.03275 18.9109 6.44928 18.911C6.93309 18.9112 7.41693 18.9152 7.90065 18.9088C8.02544 18.9072 8.06765 18.9455 8.0635 19.0663C8.05676 19.2632 8.06022 19.4607 8.06496 19.6578C8.0671 19.7516 8.03367 19.7942 7.93408 19.7863C7.85907 19.7805 7.78272 19.779 7.7081 19.7864C7.53808 19.8033 7.40357 19.7903 7.44637 19.5645C7.45951 19.4954 7.41581 19.4732 7.34599 19.4653C7.02989 19.4302 6.90905 19.5696 6.99395 19.8749C7.00594 19.9179 7.02547 19.9388 7.06827 19.9406C7.09966 19.9419 7.13118 19.9417 7.1625 19.9421C7.62556 19.9489 7.62265 19.9488 7.6034 20.413C7.59947 20.5078 7.57291 20.548 7.47366 20.5408C7.39244 20.5349 7.30881 20.5498 7.22904 20.5376C7.03338 20.5078 6.98133 20.5856 6.99311 20.7713C7.01059 21.0472 7.0987 21.1173 7.38434 21.051C7.48198 21.0283 7.45685 20.9589 7.45116 20.9068C7.43636 20.7724 7.49611 20.7436 7.623 20.7439C8.06849 20.7447 8.06847 20.7404 8.07027 21.1725C8.07208 21.6045 8.07208 21.6045 7.6347 21.6044L7.06928 21.6042Z" fill="#FEFEFD"/>
<path fill-rule="evenodd" clip-rule="evenodd" d="M29.9273 21.5886C29.6386 21.5885 29.3497 21.5845 29.0611 21.5903C28.9547 21.5925 28.9125 21.56 28.9218 21.4542C28.9288 21.3749 28.9291 21.2936 28.9208 21.2144C28.9073 21.088 28.9335 21.009 29.088 21.0335C29.1773 21.0476 29.1878 20.9898 29.1873 20.9197C29.1841 20.4702 29.1816 20.0207 29.1823 19.5712C29.1824 19.4869 29.1569 19.4379 29.0647 19.4516C28.9288 19.4719 28.9131 19.3999 28.9121 19.2899C28.9086 18.8952 28.9053 18.8953 29.3137 18.8954C29.7908 18.8956 30.268 18.8996 30.7449 18.8932C30.8738 18.8915 30.9236 18.9251 30.9171 19.0575C30.9074 19.254 30.9407 19.4553 30.9106 19.6477C30.8709 19.9031 30.6512 19.7278 30.5182 19.7633C30.442 19.7836 30.3046 19.8225 30.3099 19.6461C30.3118 19.5822 30.3569 19.4757 30.2524 19.4597C30.1319 19.4412 29.9692 19.3986 29.8909 19.4806C29.8006 19.5752 29.8523 19.7394 29.8665 19.8704C29.8768 19.9648 29.978 19.9236 30.0386 19.9246C30.4688 19.9318 30.4627 19.9303 30.469 20.3519C30.471 20.4898 30.4324 20.5474 30.291 20.5245C30.2726 20.5215 30.2534 20.5241 30.2345 20.5241C29.8394 20.5243 29.8432 20.5242 29.8599 20.9117C29.8642 21.0098 29.8964 21.0442 29.9923 21.0357C30.0483 21.0307 30.1059 21.0295 30.1616 21.036C30.2823 21.0502 30.3387 21.0078 30.3184 20.884C30.2984 20.7631 30.3509 20.7284 30.4749 20.7279C30.9213 20.7261 30.9213 20.7213 30.9231 21.1539C30.9249 21.5889 30.9249 21.5889 30.4736 21.5887C30.2915 21.5887 30.1094 21.5886 29.9273 21.5886Z" fill="#FEFEFD"/>
<path fill-rule="evenodd" clip-rule="evenodd" d="M11.5332 19.8357C11.5335 19.9095 11.5329 19.9834 11.5345 20.0573C11.5353 20.0932 11.5348 20.1278 11.5796 20.1483C11.7201 20.2124 12.0739 20.094 12.125 19.9591C12.1716 19.836 12.1706 19.7088 12.0674 19.616C11.9289 19.4916 11.7436 19.4966 11.5849 19.5368C11.4722 19.5653 11.5531 19.7091 11.533 19.7989C11.5303 19.8106 11.5327 19.8234 11.5332 19.8357ZM11.3671 18.9065C11.5813 18.9144 11.8319 18.896 12.0828 18.9289C12.5382 18.9887 12.8284 19.317 12.8381 19.7971C12.8475 20.2683 12.545 20.6505 12.1091 20.7092C11.9667 20.7283 11.822 20.7369 11.6782 20.7386C11.5816 20.7397 11.5212 20.7535 11.5316 20.8686C11.5398 20.9588 11.5103 21.0662 11.6659 21.0438C11.7649 21.0295 11.7907 21.0727 11.7943 21.1681C11.8104 21.6001 11.8138 21.6 11.378 21.5998C11.1583 21.5997 10.9385 21.5956 10.7189 21.6013C10.6188 21.6039 10.5843 21.5683 10.591 21.4729C10.5972 21.3871 10.5974 21.3001 10.5899 21.2144C10.5797 21.0984 10.5989 21.019 10.7459 21.0429C10.8435 21.0587 10.8577 21.002 10.8569 20.9218C10.8527 20.4785 10.8503 20.0351 10.8518 19.5918C10.8521 19.4999 10.8264 19.4483 10.7247 19.4621C10.6013 19.4789 10.5827 19.4151 10.581 19.3105C10.5746 18.9062 10.5714 18.9062 10.9916 18.9064L11.3671 18.9065Z" fill="#FEFEFD"/>
<path fill-rule="evenodd" clip-rule="evenodd" d="M21.2853 11.8016C21.2856 11.8875 21.2914 11.9739 21.285 12.0594C21.2766 12.1716 21.3313 12.1801 21.4215 12.1564C21.5625 12.1193 21.6271 12.0206 21.641 11.8893C21.6562 11.7474 21.6578 11.6026 21.5165 11.5089C21.4586 11.4704 21.3853 11.4434 21.3206 11.4712C21.2483 11.5023 21.2922 11.5795 21.286 11.636C21.2798 11.6905 21.285 11.7463 21.2853 11.8016ZM19.4761 12.3307C19.4751 12.084 19.4756 11.8372 19.4717 11.5906C19.4709 11.5422 19.5001 11.4622 19.4096 11.4638C19.2153 11.4671 19.2872 11.3267 19.2878 11.2416C19.2886 11.1157 19.4003 11.1786 19.4619 11.1728C19.5739 11.1623 19.688 11.1669 19.801 11.1714C19.8513 11.1733 19.9321 11.1409 19.9389 11.2227C19.9453 11.3008 19.9982 11.4143 19.8913 11.4509C19.8031 11.4812 19.8127 11.53 19.8129 11.5889C19.8145 12.0638 19.8149 12.5387 19.8199 13.0136C19.8214 13.1506 19.8482 13.2818 20.0331 13.2787C20.2063 13.2758 20.2319 13.1501 20.2323 13.0208C20.2337 12.5396 20.2298 12.0586 20.2274 11.5775C20.2272 11.524 20.2345 11.4795 20.1542 11.4541C20.0388 11.4176 20.0962 11.3068 20.0968 11.2294C20.0974 11.1447 20.1782 11.1714 20.2287 11.1712C20.6051 11.1693 20.9815 11.1673 21.3579 11.1718C21.6243 11.1749 21.8423 11.2773 21.9444 11.5305C22.0541 11.8023 22.0323 12.0688 21.8121 12.2837C21.7357 12.3584 21.7282 12.419 21.7579 12.51C21.8213 12.7037 21.8752 12.9003 21.9349 13.0951C21.9573 13.1682 21.9657 13.2371 22.0764 13.2609C22.1763 13.2824 22.1182 13.3971 22.1256 13.4702C22.1329 13.5435 22.0718 13.5357 22.0217 13.5399C21.7302 13.5643 21.7302 13.5648 21.6534 13.2919C21.585 13.0481 21.5158 12.8045 21.4492 12.5602C21.4338 12.5041 21.4256 12.4486 21.3445 12.4616C21.2671 12.4739 21.2901 12.5339 21.2896 12.5778C21.2877 12.7504 21.2901 12.9232 21.2906 13.0959C21.2908 13.175 21.2754 13.2464 21.4055 13.2561C21.5296 13.2652 21.4603 13.3833 21.4727 13.4528C21.4868 13.5322 21.4285 13.5401 21.3658 13.5396C21.2086 13.5384 21.0514 13.5398 20.8942 13.539C20.8216 13.5386 20.7315 13.5597 20.742 13.4382C20.7491 13.355 20.701 13.2356 20.8636 13.2488C20.9457 13.2555 20.9521 13.2058 20.9517 13.1439C20.9486 12.6197 20.945 12.0955 20.9455 11.5712C20.9458 11.3862 20.7862 11.476 20.7087 11.4491C20.6544 11.4302 20.5124 11.4245 20.5189 11.5935C20.5354 12.0247 20.5295 12.4568 20.5277 12.8885C20.5273 12.9924 20.5191 13.0987 20.4957 13.1998C20.4345 13.4633 20.2193 13.6014 19.9308 13.5742C19.6754 13.5499 19.4924 13.3682 19.4823 13.1077C19.4722 12.849 19.4781 12.5897 19.4771 12.3307L19.4761 12.3307Z" fill="#FEFEFD"/>
<path fill-rule="evenodd" clip-rule="evenodd" d="M19.282 21.1421C19.2802 20.7031 19.2803 20.7077 19.7295 20.7022C19.8537 20.7008 19.9218 20.7221 19.9437 20.8568C19.9655 20.9896 20.0503 21.0833 20.2038 21.0724C20.3284 21.0636 20.4192 20.9991 20.4427 20.8747C20.4698 20.7315 20.3932 20.6393 20.2639 20.5852C20.085 20.5102 19.8979 20.4511 19.7271 20.3617C19.3419 20.1603 19.1945 19.8176 19.3086 19.4325C19.419 19.0604 19.78 18.7946 20.1856 18.8679C20.4432 18.9144 20.6937 18.9215 20.9489 18.9233C21.0381 18.9239 21.0503 18.9701 21.0498 19.0403C21.0487 19.219 21.0513 19.3976 21.0508 19.5763C21.0508 19.6064 21.0521 19.6431 21.0364 19.6655C20.9809 19.745 20.5072 19.6904 20.4614 19.602C20.4472 19.5746 20.4363 19.545 20.4189 19.5197C20.3559 19.428 20.2674 19.3893 20.1582 19.4178C20.0673 19.4417 20.002 19.4988 19.9908 19.5959C19.9782 19.705 20.0214 19.7945 20.1241 19.8388C20.2675 19.9007 20.419 19.9447 20.5624 20.0067C20.8578 20.1346 21.094 20.3217 21.1415 20.6582C21.1883 20.9905 21.0656 21.2661 20.8027 21.4724C20.5528 21.6684 20.2621 21.7179 19.9741 21.5762C19.8367 21.5086 19.7452 21.6023 19.6282 21.5968C19.2844 21.5807 19.2839 21.5918 19.2825 21.253L19.282 21.1421Z" fill="#FEFEFD"/>
<path fill-rule="evenodd" clip-rule="evenodd" d="M8.43382 21.1432C8.43202 20.7105 8.43203 20.7133 8.8675 20.7099C8.98985 20.7089 9.08076 20.7093 9.09762 20.8684C9.11195 21.0044 9.20861 21.0891 9.36007 21.0789C9.47868 21.0708 9.56458 21.0047 9.59227 20.8943C9.62698 20.7553 9.55901 20.6537 9.42785 20.598C9.27804 20.5345 9.12281 20.4831 8.97466 20.4164C8.64951 20.2699 8.42055 20.0481 8.42748 19.67C8.43394 19.3243 8.60074 19.0747 8.92224 18.9282C9.07528 18.8584 9.25051 18.8175 9.39821 18.8756C9.61749 18.9619 9.83243 18.9284 10.0497 18.9281C10.1591 18.9279 10.2096 18.9513 10.2034 19.0706C10.1945 19.2364 10.2032 19.4032 10.2024 19.5696C10.2021 19.6056 10.2049 19.6506 10.1854 19.6759C10.1214 19.7592 9.65344 19.6848 9.60268 19.5872C9.51683 19.4223 9.38811 19.369 9.2536 19.4477C9.12885 19.5206 9.11249 19.6268 9.17239 19.7498C9.20466 19.8158 9.26619 19.8457 9.3325 19.8704C9.47343 19.9226 9.61696 19.9698 9.75334 20.0318C10.2454 20.255 10.4304 20.6906 10.2262 21.1393C10.0449 21.5373 9.56002 21.8057 9.08332 21.5681C8.96822 21.5108 8.88495 21.6103 8.77411 21.6041C8.4364 21.5855 8.43571 21.5979 8.43436 21.2726L8.43382 21.1432Z" fill="#FEFEFD"/>
<path fill-rule="evenodd" clip-rule="evenodd" d="M18.6682 8.22317C18.6146 8.52914 18.5675 8.78726 18.5243 9.04611C18.4467 9.51318 18.3716 9.98072 18.2949 10.448C18.2702 10.5985 18.0603 10.6931 17.9389 10.6083C17.8785 10.5661 17.9088 10.5082 17.9175 10.4556C18.0353 9.73964 18.1531 9.02372 18.2715 8.30785C18.3448 7.86494 18.4195 7.42229 18.492 6.97931C18.5095 6.87229 18.519 6.77281 18.6765 6.78424C18.8197 6.7946 18.8747 6.86755 18.8865 6.99503C18.926 7.42434 18.9661 7.85365 19.0071 8.28275C19.028 8.50204 19.0511 8.72106 19.0756 8.96299C19.1552 8.90529 19.1519 8.84473 19.1611 8.7886C19.2609 8.18175 19.3607 7.5749 19.4619 6.96824C19.4881 6.81131 19.6046 6.74701 19.7625 6.79166C19.876 6.82372 19.838 6.90771 19.8279 6.9731C19.7695 7.34996 19.7065 7.72602 19.6433 8.10202C19.5128 8.87838 19.3808 9.6544 19.2505 10.4308C19.2335 10.5324 19.2207 10.6298 19.0775 10.6229C18.9292 10.6159 18.9131 10.5109 18.9037 10.4034C18.848 9.75917 18.794 9.11475 18.7396 8.47033C18.7339 8.40308 18.7311 8.33531 18.6682 8.22317Z" fill="#FEFEFD"/>
<path fill-rule="evenodd" clip-rule="evenodd" d="M20.8891 8.96363C20.9756 8.68381 20.9965 8.40853 21.0447 8.13923C21.115 7.74575 21.1798 7.35109 21.2373 6.95563C21.2627 6.7805 21.3804 6.77656 21.5114 6.78758C21.672 6.80112 21.6138 6.92104 21.6009 6.99894C21.4128 8.13978 21.2196 9.27976 21.0288 10.4201C21.0108 10.5282 20.9977 10.634 20.8439 10.6199C20.6966 10.6063 20.6888 10.4968 20.6798 10.3911C20.6241 9.74677 20.5702 9.10241 20.5153 8.45799C20.5096 8.39186 20.5096 8.32382 20.4526 8.24743C20.3699 8.52752 20.3464 8.80252 20.2989 9.07223C20.2179 9.53248 20.1467 9.99452 20.0699 10.4555C20.0459 10.5997 19.8542 10.6831 19.7233 10.609C19.656 10.5709 19.6841 10.5144 19.6927 10.4616C19.7827 9.90931 19.8715 9.35686 19.9629 8.80481C20.0646 8.19213 20.1694 7.57998 20.2709 6.96723C20.2878 6.86557 20.2975 6.7743 20.4442 6.78188C20.5846 6.78907 20.6498 6.85329 20.6621 6.98428C20.7152 7.55457 20.7689 8.12486 20.8224 8.69509C20.8304 8.77974 20.8214 8.86804 20.8891 8.96363Z" fill="#FEFEFD"/>
<path fill-rule="evenodd" clip-rule="evenodd" d="M31.0362 8.93859C31.0823 8.67451 31.13 8.4107 31.1741 8.14635C31.2398 7.75202 31.3045 7.35749 31.3661 6.96256C31.3832 6.85223 31.4233 6.78598 31.5525 6.77754C31.7173 6.7668 31.7642 6.82638 31.7358 6.98138C31.6695 7.34434 31.6123 7.70896 31.5516 8.07291C31.4228 8.84331 31.2952 9.61391 31.1645 10.3839C31.1458 10.4948 31.1499 10.6356 30.9675 10.6131C30.8106 10.5938 30.8173 10.4705 30.8078 10.3611C30.7524 9.71676 30.6985 9.07234 30.6426 8.42805C30.6379 8.37391 30.6221 8.32069 30.6089 8.25363C30.547 8.29538 30.5456 8.34847 30.5374 8.39857C30.4254 9.07809 30.3134 9.75769 30.2012 10.4373C30.1759 10.5907 29.9744 10.6842 29.8473 10.6011C29.7846 10.5601 29.8145 10.5026 29.8232 10.4501C29.9287 9.80696 30.0342 9.16371 30.1408 8.52072C30.2272 7.99904 30.3169 7.47784 30.4012 6.95577C30.4185 6.84921 30.4373 6.7678 30.5797 6.77618C30.7222 6.78462 30.7803 6.85585 30.7922 6.98432C30.8319 7.41356 30.8721 7.8428 30.9129 8.27198C30.9339 8.4914 30.9566 8.71062 30.9786 8.92997C30.9978 8.93282 31.017 8.93574 31.0362 8.93859Z" fill="#FEFEFD"/>
<path fill-rule="evenodd" clip-rule="evenodd" d="M29.5093 7.41753C29.5083 7.30475 29.4765 7.19567 29.3583 7.14779C29.2423 7.10071 29.1389 7.14635 29.0518 7.23032C28.9617 7.317 28.9304 7.42805 28.9111 7.54466C28.878 7.7444 28.8461 7.94446 28.8128 8.1442C28.7128 8.74361 28.6118 9.34274 28.5131 9.94228C28.4942 10.0574 28.502 10.175 28.6314 10.2237C28.7712 10.2762 28.9049 10.251 29.0036 10.1302C29.068 10.0514 29.089 9.95486 29.1052 9.85691C29.1623 9.51177 29.2213 9.16697 29.2785 8.82183C29.3557 8.35558 29.4318 7.88914 29.5093 7.41753ZM29.8906 7.42172C29.8185 7.86315 29.7366 8.36633 29.6536 8.86931C29.5966 9.21477 29.5377 9.55998 29.4798 9.90531C29.3988 10.3892 29.1225 10.6274 28.6578 10.6142C28.3184 10.6045 28.1073 10.4083 28.133 10.0742C28.1593 9.7322 28.2277 9.39329 28.2827 9.05384C28.3651 8.54438 28.4526 8.03571 28.5364 7.52644C28.6066 7.0999 28.8422 6.85064 29.2344 6.79183C29.6174 6.73447 29.8973 6.97597 29.8906 7.42172Z" fill="#FEFEFD"/>
<path fill-rule="evenodd" clip-rule="evenodd" d="M22.933 7.42254C22.9329 7.31109 22.9019 7.20201 22.7843 7.15274C22.6687 7.10413 22.5649 7.14898 22.4774 7.23255C22.382 7.32373 22.3528 7.44147 22.3328 7.56443C22.2764 7.9097 22.2183 8.25463 22.1608 8.5997C22.0861 9.04768 22.0104 9.49553 21.9373 9.94378C21.9185 10.0587 21.9245 10.1766 22.0531 10.2265C22.1925 10.2807 22.3262 10.2558 22.4259 10.136C22.4912 10.0577 22.5126 9.96112 22.5288 9.86317C22.586 9.51804 22.6446 9.17323 22.7018 8.82803C22.779 8.36178 22.8552 7.8954 22.933 7.42254ZM23.3145 7.42554C23.2423 7.8673 23.1605 8.37048 23.0775 8.87345C23.0204 9.21892 22.9615 9.56406 22.9036 9.90939C22.8227 10.3932 22.5463 10.6314 22.0814 10.6181C21.7422 10.6084 21.5306 10.4119 21.5569 10.0778C21.5842 9.72979 21.6542 9.38492 21.7101 9.03946C21.7907 8.5421 21.8781 8.04588 21.9575 7.54839C22.0277 7.10928 22.2603 6.85532 22.6585 6.79571C23.0413 6.73842 23.3212 6.98006 23.3145 7.42554Z" fill="#FEFEFD"/>
<path fill-rule="evenodd" clip-rule="evenodd" d="M27.6519 21.5904C27.3695 21.5903 27.0869 21.5855 26.8047 21.5923C26.6877 21.5952 26.6275 21.5694 26.643 21.4417C26.6517 21.3689 26.6484 21.2938 26.6426 21.2203C26.6334 21.1029 26.6422 21.0087 26.8044 21.0353C26.8883 21.0491 26.9099 21.0022 26.9091 20.9262C26.905 20.4768 26.902 20.0273 26.9041 19.5779C26.9047 19.4782 26.8627 19.4421 26.7696 19.4532C26.6583 19.4665 26.6364 19.4131 26.6334 19.3143C26.6212 18.897 26.6183 18.8971 27.0498 18.8972C27.2569 18.8973 27.4644 18.9032 27.6711 18.8952C27.7896 18.8907 27.8271 18.9349 27.8186 19.045C27.8117 19.1368 27.8137 19.2298 27.8194 19.3219C27.825 19.4124 27.8002 19.4657 27.696 19.4531C27.5849 19.4395 27.5785 19.5077 27.5793 19.5908C27.5831 20.028 27.5867 20.4652 27.5835 20.9022C27.5829 21.0062 27.6146 21.0491 27.7223 21.0379C27.7843 21.0314 27.8481 21.0325 27.9104 21.0376C28.0056 21.0456 28.0566 21.0133 28.039 20.9141C28.0103 20.7527 28.088 20.7226 28.2377 20.7257C28.6438 20.7342 28.6439 20.7277 28.6456 21.1363C28.6475 21.5907 28.6475 21.5907 28.1792 21.5906L27.6519 21.5904Z" fill="#FEFEFD"/>
<path fill-rule="evenodd" clip-rule="evenodd" d="M8.52779 16.2784C8.52553 15.718 8.52665 15.1575 8.51832 14.597C8.51641 14.4746 8.53994 14.4239 8.67939 14.428C9.02432 14.4381 9.3698 14.4361 9.7148 14.429C9.83521 14.4265 9.89089 14.457 9.87454 14.5819C9.86741 14.6363 9.86973 14.6929 9.87474 14.7479C9.88312 14.8385 9.84049 14.8657 9.75377 14.8641C9.5593 14.8603 9.36453 14.8676 9.17018 14.8612C9.06087 14.8575 9.0123 14.8848 9.01568 15.0039C9.02442 15.2994 9.02527 15.5952 9.01939 15.8907C9.01716 16.007 9.06159 16.041 9.17337 16.0358C9.32356 16.0287 9.47505 16.0414 9.62497 16.0319C9.75285 16.0239 9.79566 16.0745 9.78103 16.192C9.77639 16.2284 9.77594 16.2665 9.78148 16.3027C9.80176 16.4328 9.74688 16.485 9.61593 16.4644C9.60358 16.4624 9.59077 16.4633 9.57823 16.4642C9.39921 16.4784 9.16743 16.3869 9.05469 16.5019C8.95161 16.6069 9.03072 16.8303 9.02717 17.0015C9.02346 17.1861 9.0356 17.3714 9.02583 17.5555C9.01868 17.6894 9.05471 17.7454 9.20199 17.7354C9.38312 17.723 9.56604 17.7372 9.74772 17.7307C9.8533 17.727 9.89875 17.761 9.88771 17.8674C9.88142 17.9283 9.88261 17.9909 9.88812 18.052C9.89645 18.1442 9.85183 18.1661 9.7662 18.1653C9.39601 18.1621 9.02563 18.1591 8.65549 18.1663C8.52766 18.1689 8.53419 18.1001 8.53398 18.0153C8.533 17.4364 8.53013 16.8574 8.52779 16.2784Z" fill="#FEFEFD"/>
<path fill-rule="evenodd" clip-rule="evenodd" d="M14.5002 16.2818C14.4978 15.7152 14.4985 15.1485 14.4909 14.582C14.4894 14.4659 14.5151 14.4207 14.6439 14.424C14.9889 14.4328 15.3344 14.4327 15.6793 14.4243C15.8103 14.421 15.8534 14.4569 15.8486 14.5883C15.837 14.9048 15.8809 14.8493 15.5835 14.8601C15.3917 14.8671 15.1445 14.7776 15.0236 14.8999C14.9118 15.013 14.9992 15.2519 14.9933 15.4353C14.9888 15.5768 15.0033 15.7194 14.9914 15.86C14.9789 16.0054 15.0402 16.0414 15.1757 16.032C15.3192 16.022 15.4643 16.034 15.6085 16.0284C15.709 16.0246 15.7649 16.0506 15.7536 16.1616C15.7475 16.2225 15.7487 16.285 15.7541 16.3462C15.7619 16.4364 15.7213 16.4635 15.6338 16.4611C15.4645 16.4564 15.2948 16.4639 15.1255 16.4581C15.0294 16.4548 14.9932 16.4841 14.995 16.5829C15.0015 16.9216 15.0036 17.2605 14.9989 17.5992C14.9974 17.7126 15.0503 17.7317 15.1476 17.7293C15.3357 17.7249 15.5244 17.7341 15.7123 17.726C15.829 17.721 15.8732 17.7617 15.86 17.8739C15.8542 17.9225 15.8551 17.9727 15.8605 18.0215C15.8716 18.1213 15.8399 18.1639 15.7276 18.162C15.3637 18.1558 14.9995 18.1552 14.6357 18.162C14.5183 18.1643 14.5054 18.1137 14.5056 18.0187C14.5065 17.4398 14.5025 16.8608 14.5002 16.2818Z" fill="#FEFEFD"/>
<path fill-rule="evenodd" clip-rule="evenodd" d="M6.0179 8.58252C6.02055 8.26413 5.98987 7.98427 5.85269 7.72491C5.65643 7.35354 5.32816 7.21623 4.92092 7.21285C4.50821 7.20947 4.14996 7.32862 3.97085 7.71443C3.72243 8.24995 3.72131 8.80633 3.99183 9.33751C4.23041 9.80603 4.9895 9.98196 5.4268 9.69967C5.50221 9.65102 5.50287 9.6154 5.43622 9.56293C5.32188 9.47296 5.19869 9.39505 5.05312 9.37461C4.92686 9.35695 4.94583 9.27464 4.95023 9.1975C4.95684 9.08241 5.04074 9.14316 5.08998 9.14947C5.30106 9.17649 5.48622 9.267 5.64692 9.40109C5.73343 9.47323 5.77812 9.45583 5.83404 9.36605C5.99103 9.11367 6.02545 8.83714 6.0179 8.58252ZM6.28066 10.0679C6.10417 10.0794 5.93315 10.1065 5.82195 9.92786C5.76248 9.83235 5.69152 9.8961 5.62882 9.93111C5.33388 10.0959 5.01502 10.1445 4.68308 10.0983C4.14579 10.0233 3.79126 9.72722 3.62562 9.21886C3.46956 8.73996 3.46788 8.25827 3.63062 7.78445C3.82711 7.21256 4.26528 6.92868 4.91366 6.93015C5.55022 6.93161 6.00102 7.21234 6.18306 7.78362C6.37981 8.40093 6.40826 9.02175 6.02667 9.5953C5.97642 9.67091 5.99834 9.71376 6.04994 9.76927C6.13037 9.85572 6.20529 9.94713 6.28195 10.0369C6.28473 10.0401 6.28173 10.0481 6.28066 10.0679Z" fill="#FEFEFD"/>
<path fill-rule="evenodd" clip-rule="evenodd" d="M25.4883 8.04251L25.4284 8.03106C25.3395 8.40606 25.2503 8.78086 25.1623 9.15606C25.147 9.22117 25.0865 9.30481 25.221 9.32058C25.3243 9.33278 25.3909 9.30566 25.3934 9.18701C25.3955 9.08893 25.4098 8.99126 25.418 8.89332C25.4417 8.60976 25.465 8.32614 25.4883 8.04251ZM25.7885 8.69579C25.7704 9.27423 25.7434 9.85267 25.7394 10.4313C25.738 10.6343 25.6267 10.6161 25.488 10.6222C25.3119 10.6302 25.3351 10.521 25.3386 10.4161C25.3455 10.207 25.3544 9.99778 25.3594 9.78854C25.3612 9.71799 25.3832 9.62681 25.2657 9.62513C25.1592 9.62352 25.0332 9.58227 24.993 9.74254C24.933 9.98116 24.8658 10.2179 24.8014 10.4552C24.7636 10.5943 24.5376 10.6867 24.4186 10.608C24.3451 10.5594 24.3976 10.4971 24.4137 10.4426C24.6007 9.81162 24.7883 9.18087 24.977 8.55038C25.1376 8.01419 25.3057 7.48012 25.4574 6.94154C25.5006 6.78862 25.5915 6.7713 25.722 6.77913C25.8852 6.78896 25.8435 6.90542 25.844 6.99714C25.8476 7.56347 25.8493 8.1298 25.8516 8.69613C25.8305 8.696 25.8096 8.69586 25.7885 8.69579Z" fill="#FEFEFD"/>
<path fill-rule="evenodd" clip-rule="evenodd" d="M3.50292 16.2924C3.50063 15.726 3.50253 15.1596 3.4929 14.5933C3.49075 14.4629 3.52823 14.4265 3.65993 14.4299C4.00479 14.4389 4.35 14.4374 4.69487 14.4308C4.81312 14.4285 4.8721 14.4555 4.85467 14.5818C4.8472 14.6363 4.84979 14.6928 4.85493 14.7478C4.86304 14.836 4.82649 14.868 4.73674 14.8659C4.54226 14.8615 4.3475 14.8705 4.15342 14.8625C4.03371 14.8575 3.98638 14.8901 3.99059 15.016C4.00039 15.3051 4.00149 15.5948 3.99416 15.884C3.99096 16.01 4.03965 16.045 4.15863 16.0375C4.2836 16.0296 4.40945 16.0357 4.53493 16.0358C4.77962 16.036 4.77005 16.0366 4.78334 16.2729C4.79183 16.4227 4.75338 16.4858 4.59129 16.4684C4.46724 16.4551 4.33968 16.4754 4.21543 16.4633C4.05057 16.4473 3.98838 16.4916 3.99517 16.6698C4.01163 17.1064 3.99883 17.5439 4.00801 17.9809C4.01078 18.1158 3.9883 18.1766 3.82861 18.1708C3.51078 18.1592 3.51042 18.1692 3.50918 17.8623C3.50707 17.339 3.50496 16.8157 3.50292 16.2924Z" fill="#FEFEFD"/>
<path fill-rule="evenodd" clip-rule="evenodd" d="M23.8482 9.51299C23.9581 9.353 23.9884 9.173 24.0364 8.99956C24.2236 8.32419 24.4061 7.64757 24.5915 6.97167C24.6385 6.80015 24.7618 6.74207 24.9297 6.80312C25.0552 6.84874 24.9729 6.93197 24.9575 6.9861C24.8006 7.53594 24.6366 8.08379 24.4736 8.63183C24.2965 9.22713 24.1182 9.82196 23.9404 10.417C23.8839 10.6062 23.7734 10.6631 23.5759 10.6147C23.4705 10.5888 23.4829 10.5128 23.4858 10.4399C23.5227 9.51121 23.5606 8.58255 23.598 7.6539C23.6072 7.42631 23.625 7.1986 23.621 6.97122C23.6178 6.79036 23.7181 6.77853 23.861 6.78061C24.0309 6.78316 24.0293 6.87951 24.0199 7.0022C23.9604 7.78123 23.9043 8.56058 23.8482 9.33987C23.8439 9.39725 23.848 9.45529 23.8482 9.51299Z" fill="#FEFEFD"/>
<path fill-rule="evenodd" clip-rule="evenodd" d="M11.5325 11.2869C11.5308 10.8651 11.4494 10.7782 11.0967 10.806C11.0167 10.8123 10.9871 10.837 10.9884 10.9151C10.9922 11.161 10.9912 11.407 10.9928 11.6529C10.993 11.7025 10.995 11.745 11.0625 11.7635C11.3448 11.8404 11.5308 11.7055 11.5329 11.4159C11.5333 11.3729 11.5326 11.3299 11.5325 11.2869ZM10.9673 13.0581C11.0802 13.0581 11.1869 13.0623 11.2932 13.0573C11.5199 13.0467 11.6071 12.9583 11.613 12.7352C11.6162 12.6184 11.6131 12.5013 11.6125 12.3843C11.6102 12.0234 11.5363 11.9583 11.17 11.9515C11.0318 11.9488 10.9887 11.9832 10.9899 12.1244C10.9925 12.4303 11.0254 12.7383 10.9673 13.0581ZM11.7486 11.8295C11.9713 11.9534 12.0308 12.1444 12.0226 12.3688C12.0183 12.4857 12.0242 12.603 12.0228 12.7201C12.0187 13.0562 11.8626 13.2487 11.5226 13.2738C11.1853 13.2985 10.8447 13.2838 10.5055 13.2853C10.4698 13.2855 10.4265 13.2908 10.4201 13.2376C10.415 13.1967 10.4309 13.1588 10.467 13.1446C10.6099 13.0883 10.5982 12.9718 10.5973 12.8529C10.5927 12.2302 10.5906 11.6077 10.5893 10.9851C10.5892 10.8801 10.6039 10.7742 10.4786 10.7182C10.4406 10.7012 10.431 10.6613 10.4419 10.6224C10.4558 10.5724 10.5012 10.5869 10.5352 10.5868C10.843 10.5868 11.1514 10.578 11.4587 10.5925C11.7833 10.6077 11.9326 10.7729 11.9408 11.0908C11.9427 11.1709 11.9373 11.2514 11.9429 11.3311C11.9566 11.524 11.9213 11.6978 11.7486 11.8295Z" fill="#FEFEFD"/>
<path fill-rule="evenodd" clip-rule="evenodd" d="M32.6725 9.41822C33.0802 9.44927 33.4641 9.55156 33.7912 9.80599C34.0131 9.97862 34.1211 10.205 34.0931 10.4867C34.0815 10.6032 34.0402 10.708 33.9319 10.7622C33.8323 10.8122 33.8176 10.8481 33.9071 10.9253C33.962 10.9727 34.0075 11.0381 34.0379 11.1039C34.1161 11.2731 34.149 11.4521 34.0282 11.6125C33.9141 11.7642 33.7362 11.7769 33.5654 11.7455C33.1895 11.6764 32.8172 11.5871 32.441 11.5194C32.303 11.4946 32.3157 11.4129 32.3151 11.3195C32.3127 10.9869 32.3119 10.9862 32.642 11.0546C32.9243 11.113 33.2053 11.1774 33.4887 11.2308C33.5748 11.2469 33.689 11.2921 33.7408 11.1804C33.7917 11.0701 33.7259 10.9785 33.6415 10.9049C33.5383 10.8149 33.4068 10.7902 33.2784 10.763C33.0148 10.707 32.7513 10.6496 32.4857 10.6045C32.3493 10.5814 32.3044 10.5241 32.308 10.3864C32.3165 10.0632 32.3086 10.062 32.6252 10.1268C32.9138 10.1858 33.2012 10.2506 33.4907 10.3055C33.5716 10.3208 33.6766 10.3643 33.7318 10.2697C33.7915 10.1672 33.7244 10.0768 33.6507 10.0079C33.3776 9.75289 33.0301 9.67134 32.6734 9.61607C32.6274 9.6089 32.5908 9.6083 32.6028 9.68113C32.6212 9.79304 32.5433 9.83281 32.4442 9.83993C32.3444 9.84705 32.2687 9.80823 32.2461 9.70857C32.2232 9.60752 32.229 9.50985 32.3402 9.45414C32.446 9.4012 32.559 9.41044 32.6725 9.41822Z" fill="#FEFEFD"/>
<path fill-rule="evenodd" clip-rule="evenodd" d="M13.1769 16.5176C13.1749 16.0188 13.1685 15.5201 13.1738 15.0214C13.1751 14.8915 13.1355 14.8422 13.0044 14.8585C12.9427 14.8662 12.879 14.8599 12.8163 14.8597C12.5717 14.8596 12.5809 14.859 12.5681 14.6218C12.5601 14.4729 12.5969 14.4197 12.7601 14.4241C13.1928 14.4361 13.626 14.4321 14.0589 14.4261C14.181 14.4243 14.2401 14.4433 14.235 14.5834C14.2231 14.911 14.2641 14.8541 13.9558 14.8599C13.9183 14.8607 13.8799 14.8646 13.8431 14.8592C13.703 14.8388 13.6616 14.8922 13.6634 15.0322C13.6733 15.8941 13.6736 16.7561 13.6772 17.6181C13.6775 17.7104 13.6845 17.8033 13.6763 17.895C13.6686 17.9825 13.7307 18.1182 13.6382 18.1473C13.5132 18.1867 13.3646 18.1683 13.2283 18.154C13.1526 18.146 13.1849 18.0629 13.1845 18.0136C13.18 17.5149 13.179 17.0162 13.1769 16.5176Z" fill="#FEFEFD"/>
<path fill-rule="evenodd" clip-rule="evenodd" d="M10.2307 16.276C10.2285 15.7156 10.2294 15.155 10.2215 14.5946C10.2196 14.4742 10.239 14.4214 10.3806 14.4239C10.7187 14.43 10.7188 14.4222 10.7202 14.751C10.7239 15.6749 10.7329 16.5989 10.7267 17.5226C10.7256 17.6994 10.7821 17.7458 10.9494 17.7325C11.1115 17.7196 11.2758 17.7353 11.4386 17.728C11.5557 17.7228 11.5985 17.7681 11.5873 17.8789C11.5818 17.9338 11.583 17.99 11.5878 18.045C11.5953 18.1325 11.5598 18.1637 11.4697 18.1627C11.0994 18.1592 10.729 18.1565 10.3588 18.1637C10.2313 18.1662 10.2371 18.0981 10.2371 18.013C10.2361 17.434 10.2331 16.855 10.2307 16.276Z" fill="#FEFEFD"/>
<path fill-rule="evenodd" clip-rule="evenodd" d="M5.8659 11.5631C5.86644 11.6922 5.8657 11.8213 5.86826 11.9503C5.86896 11.9907 5.85411 12.0376 5.90127 12.0666C6.03658 12.1497 6.3326 12.0426 6.37013 11.8824C6.418 11.6782 6.41523 11.4663 6.36856 11.2618C6.33274 11.1048 6.17131 11.0384 5.95247 11.0724C5.79007 11.0977 5.88265 11.2254 5.86821 11.3056C5.85317 11.389 5.86548 11.4771 5.8659 11.5631ZM6.42373 12.2446C6.59688 12.4176 6.62813 12.6313 6.70977 12.8226C6.75714 12.9337 6.78079 13.0544 6.90795 13.125C6.99616 13.174 6.9767 13.2493 6.88028 13.2861C6.6611 13.3697 6.48471 13.2911 6.40025 13.0733C6.33115 12.8947 6.26656 12.7144 6.1951 12.5369C6.17007 12.4746 6.13809 12.4118 6.09523 12.3606C6.05006 12.3067 5.97752 12.2761 5.90859 12.3011C5.8404 12.3258 5.87491 12.3974 5.8737 12.4475C5.86989 12.6015 5.87599 12.7557 5.87299 12.9097C5.87109 13.0053 5.87153 13.0943 5.97325 13.1483C6.01566 13.1708 6.0352 13.2121 6.01414 13.2585C5.99434 13.3021 5.94933 13.2859 5.91491 13.2863C5.75782 13.2881 5.60071 13.2877 5.44374 13.2863C5.40891 13.286 5.36482 13.2971 5.35132 13.2475C5.34029 13.207 5.35552 13.1695 5.39156 13.1531C5.50842 13.0996 5.49538 12.9997 5.49484 12.9007C5.49158 12.3459 5.48968 11.7912 5.48751 11.2365C5.4871 11.1395 5.50041 11.0454 5.39854 10.9724C5.34602 10.9347 5.33574 10.8483 5.44136 10.8508C5.74811 10.8581 6.05787 10.8102 6.36131 10.8829C6.6349 10.9486 6.7646 11.1111 6.77445 11.384C6.77874 11.5071 6.77608 11.6305 6.777 11.7537C6.77879 11.9902 6.66561 12.1506 6.42373 12.2446Z" fill="#FEFEFD"/>
<path fill-rule="evenodd" clip-rule="evenodd" d="M4.6915 11.4553C4.69124 11.3938 4.69139 11.3323 4.69073 11.2708C4.68678 10.9195 4.58424 10.8282 4.22307 10.8334C4.11235 10.835 4.06732 10.8632 4.07009 10.979C4.0779 11.2987 4.07889 11.6187 4.07414 11.9383C4.07256 12.046 4.11342 12.0707 4.21633 12.0726C4.5787 12.0791 4.6913 11.9767 4.69219 11.6214C4.69236 11.566 4.6918 11.5107 4.6915 11.4553ZM4.0701 10.5894C4.23357 10.599 4.42819 10.5727 4.62097 10.6223C4.93217 10.7024 5.08819 10.8853 5.09875 11.203C5.10361 11.3507 5.10186 11.4986 5.10133 11.6465C5.10017 12.033 4.93113 12.2253 4.54351 12.2827C4.51876 12.2863 4.4936 12.2874 4.46857 12.2892C4.07779 12.3151 4.07327 12.3151 4.08146 12.6952C4.08506 12.8633 4.01614 13.0535 4.22622 13.1735C4.27668 13.2025 4.26753 13.2904 4.16557 13.2904C3.97718 13.2904 3.78886 13.2912 3.60046 13.2897C3.56584 13.2895 3.52082 13.3016 3.50598 13.2533C3.49147 13.2058 3.51039 13.1612 3.55323 13.144C3.69732 13.0861 3.6807 12.9677 3.67995 12.8503C3.67595 12.228 3.67378 11.6059 3.67201 10.9837C3.6716 10.8847 3.68373 10.7849 3.56563 10.7316C3.5202 10.7112 3.50996 10.6646 3.52779 10.62C3.54562 10.575 3.59116 10.5906 3.62544 10.5902C3.76355 10.5882 3.90175 10.5894 4.0701 10.5894Z" fill="#FEFEFD"/>
<path fill-rule="evenodd" clip-rule="evenodd" d="M24.6152 12.3613C24.6141 12.1024 24.6142 11.8437 24.6109 11.5848C24.6104 11.5354 24.6345 11.4594 24.5436 11.4621C24.3626 11.4677 24.4304 11.3369 24.4247 11.2545C24.4157 11.1238 24.5242 11.1756 24.5868 11.1713C24.6932 11.1641 24.8004 11.1659 24.907 11.1709C24.9582 11.1733 25.0393 11.1388 25.0531 11.2096C25.0683 11.2882 25.1103 11.4071 25.0248 11.4467C24.9305 11.4905 24.9546 11.5494 24.9526 11.6097C24.9488 11.7205 24.9649 11.8333 24.9499 11.9421C24.926 12.1147 25.0017 12.15 25.16 12.1413C25.2693 12.1353 25.3001 12.1017 25.2941 12.0003C25.2863 11.8651 25.2927 11.7293 25.29 11.5936C25.2889 11.5368 25.3004 11.488 25.2181 11.448C25.1294 11.4048 25.1727 11.2904 25.1852 11.2118C25.1968 11.1382 25.2784 11.1736 25.329 11.1711C25.4356 11.1659 25.543 11.1637 25.6491 11.1718C25.7113 11.1766 25.8209 11.1219 25.814 11.2525C25.8096 11.3338 25.8817 11.4681 25.6998 11.4613C25.623 11.4585 25.63 11.5156 25.6302 11.5642C25.632 12.088 25.634 12.6119 25.637 13.1357C25.6373 13.1816 25.6224 13.2464 25.7004 13.2441C25.8952 13.2383 25.8218 13.3815 25.8212 13.4659C25.8201 13.5913 25.7085 13.5265 25.6466 13.5339C25.5538 13.5451 25.458 13.5427 25.3644 13.5347C25.3043 13.5296 25.204 13.5786 25.1941 13.4827C25.1861 13.406 25.1249 13.2965 25.252 13.2434C25.2671 13.2371 25.2896 13.2221 25.2897 13.2109C25.2916 12.9647 25.3091 12.7166 25.2816 12.4732C25.2706 12.3756 25.1301 12.4436 25.05 12.4286C24.9764 12.4148 24.9532 12.4561 24.9545 12.5251C24.958 12.7346 24.9641 12.9445 24.9551 13.1536C24.9506 13.26 25.1137 13.2572 25.0794 13.3905C25.0553 13.485 25.0601 13.5511 24.9337 13.5389C24.8216 13.5281 24.7075 13.5413 24.5948 13.5348C24.5315 13.5311 24.425 13.5797 24.4334 13.4495C24.4388 13.3661 24.3726 13.2372 24.5528 13.2432C24.6435 13.2463 24.617 13.1682 24.6172 13.1193C24.6186 12.8667 24.6162 12.614 24.6152 12.3613Z" fill="#FEFEFD"/>
<path fill-rule="evenodd" clip-rule="evenodd" d="M30.9273 12.6826C30.9175 12.3203 30.9088 11.9579 30.8967 11.5957C30.8951 11.5467 30.9261 11.4666 30.8427 11.4609C30.6615 11.4486 30.741 11.3179 30.7389 11.2399C30.7357 11.1144 30.8478 11.1754 30.9098 11.1683C30.9963 11.1584 31.0858 11.1597 31.1728 11.1681C31.2317 11.1737 31.3345 11.1219 31.3362 11.2296C31.3375 11.3085 31.4153 11.4351 31.2439 11.4597C31.1487 11.4734 31.1895 11.558 31.1894 11.6107C31.1889 12.1896 31.1947 12.7686 31.1915 13.3474C31.1912 13.41 31.2583 13.5206 31.115 13.5322C31.0049 13.5411 30.9229 13.5382 30.8789 13.3955C30.7196 12.8776 30.5504 12.3627 30.415 11.8355C30.4295 12.2774 30.4359 12.718 30.4352 13.1586C30.4351 13.1959 30.4386 13.2355 30.4896 13.2398C30.6661 13.2549 30.5833 13.3881 30.586 13.4664C30.5899 13.5792 30.485 13.5249 30.4271 13.5307C30.3402 13.5393 30.2508 13.5402 30.164 13.5305C30.101 13.5233 29.9911 13.5832 29.9885 13.4616C29.9868 13.382 29.9129 13.2523 30.0895 13.2372C30.1629 13.2309 30.137 13.1609 30.137 13.1174C30.1366 12.6062 30.1346 12.0951 30.1306 11.5839C30.1303 11.5405 30.1567 11.47 30.0849 11.4622C29.8981 11.4418 29.9732 11.3033 29.9827 11.222C29.995 11.117 30.1053 11.1696 30.1698 11.1683C30.4932 11.1614 30.4867 11.1668 30.5936 11.4726C30.7324 11.8694 30.8226 12.2784 30.928 12.6835C30.928 12.6834 30.9331 12.6875 30.9331 12.6875L30.9273 12.6826Z" fill="#FEFEFD"/>
<path fill-rule="evenodd" clip-rule="evenodd" d="M26.9562 6.78182C27.1256 6.78165 27.2948 6.78202 27.4642 6.78151C27.5451 6.78127 27.6286 6.78717 27.6074 6.89629C27.5917 6.97722 27.6181 7.08781 27.4756 7.10366C27.3473 7.118 27.1786 7.02665 27.1004 7.17844C27.0435 7.28894 27.0426 7.42824 27.0213 7.55536C26.8603 8.51879 26.7005 9.48241 26.5398 10.4459C26.5159 10.5896 26.2858 10.6863 26.1704 10.6018C26.1187 10.5637 26.143 10.5142 26.151 10.4665C26.3085 9.52111 26.4655 8.57575 26.6225 7.63026C26.6315 7.5758 26.6376 7.52068 26.6467 7.46615C26.702 7.13694 26.7024 7.13462 26.3682 7.1022C26.2907 7.09464 26.2504 7.07174 26.2583 6.99133C26.2679 6.89227 26.2656 6.78381 26.4106 6.78244C26.5924 6.78056 26.7744 6.78198 26.9562 6.78182Z" fill="#FEFEFD"/>
<path fill-rule="evenodd" clip-rule="evenodd" d="M12.3493 16.2993C12.3513 16.8597 12.3485 17.4202 12.3589 17.9805C12.3615 18.1242 12.3244 18.17 12.1739 18.165C11.8616 18.1547 11.8613 18.1633 11.8601 17.8517C11.8561 16.7739 11.8554 15.6961 11.8445 14.6183C11.843 14.4669 11.8777 14.4178 12.0377 14.4244C12.3419 14.4369 12.3423 14.4271 12.3434 14.7288L12.3493 16.2993Z" fill="#FEFEFD"/>
<path fill-rule="evenodd" clip-rule="evenodd" d="M5.65892 16.2984C5.661 16.8589 5.6591 17.4193 5.66791 17.9797C5.66997 18.1153 5.64676 18.1748 5.48806 18.1691C5.17132 18.1577 5.17096 18.1676 5.16981 17.8598C5.16582 16.7821 5.16647 15.7043 5.15311 14.6266C5.151 14.4567 5.20197 14.4217 5.36155 14.4285C5.65156 14.4406 5.652 14.4314 5.65303 14.7095L5.65892 16.2984Z" fill="#FEFEFD"/>
<path fill-rule="evenodd" clip-rule="evenodd" d="M26.6052 11.5508C26.5859 11.5505 26.5666 11.5503 26.5473 11.5501C26.5227 11.816 26.498 12.0819 26.4736 12.3479C26.4652 12.4385 26.5325 12.4213 26.5867 12.4252C26.6545 12.4301 26.6947 12.413 26.6861 12.3343C26.6576 12.0734 26.632 11.812 26.6052 11.5508ZM26.5917 11.1674C26.6858 11.1674 26.7802 11.1629 26.874 11.1691C26.9323 11.1731 27.034 11.1298 27.0231 11.2454C27.016 11.3202 27.0988 11.444 26.9341 11.4591C26.855 11.4664 26.8727 11.5253 26.8793 11.5707C26.958 12.1003 27.0385 12.6296 27.1184 13.159C27.1254 13.2061 27.1475 13.2309 27.1984 13.2464C27.321 13.2839 27.2611 13.3883 27.265 13.4634C27.2701 13.5641 27.1816 13.5313 27.1267 13.5334C27.014 13.5378 26.9005 13.5405 26.7881 13.5324C26.7304 13.5282 26.6262 13.5807 26.6281 13.469C26.6294 13.3905 26.5469 13.2599 26.7205 13.2409C26.7876 13.2336 26.7687 13.1805 26.7646 13.1401C26.7552 13.0483 26.7365 12.9569 26.7343 12.8651C26.7318 12.7616 26.703 12.7109 26.582 12.7112C26.4632 12.7115 26.4298 12.7576 26.4292 12.8631C26.4286 12.9487 26.4119 13.0342 26.4023 13.1197C26.3953 13.1817 26.3838 13.2292 26.4801 13.2505C26.6012 13.2773 26.5357 13.3918 26.5428 13.467C26.5511 13.5564 26.4716 13.5323 26.4209 13.5336C26.3081 13.5365 26.1944 13.5419 26.0824 13.5316C26.0199 13.5259 25.9092 13.5867 25.9056 13.4649C25.9031 13.3856 25.8291 13.2548 26.0037 13.2389C26.0639 13.2335 26.0536 13.1771 26.0593 13.1368C26.1318 12.6318 26.2045 12.1269 26.275 11.6215C26.2853 11.5475 26.3168 11.4725 26.1834 11.4466C26.0794 11.4265 26.1373 11.3112 26.1318 11.2387C26.1252 11.1519 26.1998 11.1687 26.253 11.1679C26.3658 11.1661 26.4788 11.1674 26.5917 11.1674Z" fill="#FEFEFD"/>
<path fill-rule="evenodd" clip-rule="evenodd" d="M29.413 12.2958C29.4122 12.0864 29.4156 11.8768 29.4084 11.6675C29.4054 11.5828 29.459 11.4783 29.3045 11.4336C29.2408 11.4151 29.2672 11.2863 29.2818 11.2097C29.2945 11.143 29.3628 11.1683 29.4087 11.1669C29.5153 11.1637 29.6223 11.1627 29.7288 11.1672C29.7896 11.1698 29.8867 11.1335 29.8795 11.246C29.8745 11.323 29.9457 11.4464 29.7827 11.4567C29.6661 11.4642 29.708 11.5532 29.7077 11.6104C29.7062 12.0354 29.7112 12.4604 29.7098 12.8855C29.7096 12.9833 29.7015 13.083 29.6807 13.1783C29.621 13.4541 29.407 13.5972 29.1114 13.5682C28.8496 13.5425 28.6687 13.3549 28.6642 13.0822C28.6562 12.5957 28.6586 12.109 28.6559 11.6223C28.6555 11.5402 28.682 11.4554 28.5358 11.449C28.4092 11.4436 28.4826 11.3232 28.4682 11.2551C28.4522 11.1793 28.5032 11.1638 28.5696 11.165C28.7077 11.1675 28.8459 11.1632 28.9839 11.1672C29.034 11.1687 29.1148 11.1367 29.1215 11.2186C29.1279 11.2966 29.1807 11.4098 29.074 11.4465C28.986 11.4768 28.9954 11.5254 28.9956 11.5842C28.9972 12.0586 28.9975 12.5329 29.0025 13.0072C29.004 13.1437 29.0297 13.2765 29.2145 13.2727C29.3993 13.2691 29.4133 13.1323 29.4148 12.998C29.4176 12.764 29.414 12.5299 29.413 12.2958Z" fill="#FEFEFD"/>
<path fill-rule="evenodd" clip-rule="evenodd" d="M15.3142 11.1612L15.3146 11.2536C15.3153 11.4637 15.1916 11.5464 14.9882 11.4756C14.8978 11.4441 14.9401 11.3729 14.9354 11.3193C14.9169 11.113 14.8026 11.0167 14.6157 11.0614C14.5808 11.0697 14.5439 11.0868 14.518 11.1106C14.3675 11.2492 14.4277 11.74 14.6121 11.8358C14.7503 11.9076 14.8994 11.9587 15.0412 12.0241C15.2491 12.1199 15.356 12.2809 15.3524 12.5085C15.3516 12.5578 15.3505 12.6072 15.3533 12.6563C15.3665 12.8891 15.3361 13.1072 15.0976 13.2245C14.8232 13.3595 14.5407 13.3653 14.2691 13.2143C14.0929 13.1164 13.9929 12.8588 14.0388 12.6658C14.044 12.6438 14.0572 12.6064 14.0686 12.6057C14.1805 12.5989 14.2958 12.5817 14.4039 12.6012C14.495 12.6177 14.4494 12.715 14.4542 12.7763C14.4705 12.9817 14.5356 13.0643 14.6937 13.0662C14.8641 13.0682 14.9408 12.98 14.9464 12.7733C14.9483 12.6995 14.9403 12.6251 14.9472 12.5518C14.9642 12.3702 14.8693 12.2619 14.7126 12.1915C14.5814 12.1325 14.4466 12.0809 14.3185 12.0161C14.1479 11.9298 14.0581 11.7901 14.0621 11.5975C14.0637 11.5237 14.0613 11.4498 14.0613 11.376C14.0609 10.9005 14.4824 10.6522 14.9153 10.8721C14.9704 10.9001 15.0238 10.9844 15.0751 10.852C15.0969 10.7958 15.2026 10.8185 15.2681 10.8332C15.3365 10.8484 15.3096 10.9132 15.3124 10.9582C15.3165 11.0257 15.3139 11.0935 15.3142 11.1612Z" fill="#FEFEFD"/>
<path fill-rule="evenodd" clip-rule="evenodd" d="M10.6946 8.93792C10.5214 9.05169 10.3628 9.03502 10.2066 9.03702C10.0376 9.03909 9.86755 9.02307 9.70135 9.07143C9.4957 9.13135 9.37556 9.26587 9.37275 9.44704C9.36985 9.62682 9.46796 9.76174 9.67244 9.82557C10.0209 9.93434 10.3405 9.86962 10.6305 9.65417C10.6813 9.61645 10.6989 9.57334 10.6979 9.51302C10.6947 9.33483 10.6955 9.1565 10.6946 8.93792ZM10.7226 9.8567C10.3974 10.0937 10.0408 10.1668 9.6516 10.0713C9.29966 9.9849 9.10243 9.74877 9.11257 9.4312C9.12201 9.13607 9.34642 8.91497 9.69707 8.85509C9.91469 8.81801 10.135 8.83113 10.3543 8.82391C10.4826 8.81972 10.6339 8.83314 10.6881 8.68112C10.7472 8.5154 10.6704 8.32811 10.5234 8.22138C10.2603 8.03046 9.77711 8.07514 9.55046 8.30987C9.51759 8.3439 9.50267 8.40945 9.44364 8.40201C9.38326 8.39431 9.30922 8.38144 9.27105 8.34263C9.22528 8.29599 9.28635 8.24066 9.3156 8.19723C9.62462 7.73897 10.5278 7.72978 10.8481 8.18083C10.9224 8.28548 10.9519 8.40289 10.9519 8.5297C10.9519 8.85609 10.9565 9.18254 10.9544 9.50893C10.9537 9.63918 10.9658 9.76619 11.0002 9.89228C11.0181 9.95784 11.069 10.0343 10.9459 10.0652C10.8365 10.0926 10.7781 10.0653 10.7654 9.951C10.7622 9.92227 10.7408 9.89537 10.7226 9.8567Z" fill="#FEFEFD"/>
<path fill-rule="evenodd" clip-rule="evenodd" d="M15.7295 8.84296C15.9242 8.84302 16.119 8.83904 16.3136 8.8448C16.4144 8.84782 16.4441 8.81551 16.432 8.71624C16.3842 8.32645 16.1594 8.11149 15.7828 8.10508C15.341 8.09752 15.0701 8.30748 15.008 8.69684C14.9893 8.81405 15.0267 8.84988 15.1455 8.84502C15.3398 8.83701 15.5348 8.84296 15.7295 8.84296ZM15.8451 9.03371C15.6063 9.0337 15.3674 9.03859 15.1289 9.03143C15.017 9.02808 14.9928 9.06701 15 9.17078C15.0249 9.53607 15.2453 9.79248 15.6101 9.84173C15.8822 9.87844 16.1545 9.86747 16.3832 9.69252C16.4751 9.62222 16.5113 9.67779 16.5645 9.73238C16.6425 9.8124 16.5766 9.85237 16.5209 9.89109C16.1331 10.1602 15.7119 10.1729 15.2847 10.0089C14.9002 9.86137 14.7545 9.53737 14.7125 9.16122C14.6939 8.99626 14.6996 8.83024 14.7337 8.6647C14.8562 8.06928 15.3479 7.74582 15.9591 7.86449C16.4436 7.95848 16.7904 8.47511 16.7001 8.95658C16.682 9.05358 16.6188 9.0327 16.5614 9.03315C16.3227 9.03499 16.0838 9.03379 15.8451 9.03371Z" fill="#FEFEFD"/>
<path fill-rule="evenodd" clip-rule="evenodd" d="M8.72344 12.4733C8.63017 12.6666 8.5373 12.8578 8.44558 13.0496C8.42792 13.0865 8.43028 13.12 8.47202 13.1437C8.51666 13.1689 8.56727 13.2 8.53606 13.258C8.50767 13.3104 8.44589 13.2861 8.39912 13.2861C8.28035 13.2862 8.10797 13.3262 8.05427 13.2663C7.95075 13.1509 8.15662 13.1143 8.19724 13.0159C8.30961 12.7434 8.45213 12.4827 8.58816 12.22C8.62599 12.1468 8.62161 12.0847 8.59175 12.0109C8.47161 11.7133 8.35699 11.4137 8.24009 11.1148C8.22883 11.0862 8.21569 11.0581 8.20363 11.0296C8.17875 10.9709 8.05306 10.9611 8.10076 10.8779C8.14163 10.8065 8.23787 10.8573 8.30813 10.8448C8.51582 10.8078 8.61745 10.9046 8.67176 11.0955C8.72031 11.2665 8.79724 11.4299 8.87774 11.6383C8.9779 11.431 9.06455 11.2532 9.14944 11.0747C9.16296 11.0463 9.16452 11.0157 9.13311 10.9925C9.09473 10.964 9.03134 10.9421 9.05815 10.8817C9.08703 10.8165 9.1572 10.8474 9.20869 10.8467C9.32097 10.8454 9.48528 10.8096 9.53491 10.8664C9.63526 10.9809 9.4323 11.0025 9.39456 11.0974C9.29272 11.3541 9.15992 11.5992 9.03442 11.8464C9.00022 11.9139 9.00389 11.9704 9.03151 12.0385C9.16616 12.3701 9.2957 12.7038 9.4286 13.0361C9.44204 13.0698 9.4608 13.1045 9.48608 13.1301C9.52627 13.1707 9.62411 13.1842 9.58272 13.2613C9.55132 13.3198 9.46777 13.2857 9.40838 13.2864C9.09468 13.29 9.09467 13.2885 8.97503 12.9983C8.90686 12.8329 8.83896 12.6673 8.76965 12.5022C8.76604 12.4938 8.75084 12.49 8.72344 12.4733Z" fill="#FEFEFD"/>
<path fill-rule="evenodd" clip-rule="evenodd" d="M12.978 11.3556C12.9669 11.3565 12.9558 11.3574 12.9446 11.3583C12.8907 11.594 12.8356 11.8294 12.7834 12.0655C12.6989 12.4473 12.6998 12.4475 13.1009 12.4335C13.1259 12.4326 13.151 12.4325 13.176 12.4313C13.2154 12.4292 13.2283 12.4096 13.2193 12.3716C13.1385 12.033 13.0583 11.6943 12.978 11.3556ZM13.605 13.2844C13.5484 13.2844 13.4919 13.2867 13.4354 13.2837C13.3872 13.2812 13.3226 13.3067 13.2945 13.2628C13.2531 13.198 13.3406 13.176 13.3596 13.1326C13.4241 12.9855 13.326 12.8506 13.299 12.7108C13.2814 12.6191 13.187 12.6564 13.123 12.651C13.0732 12.6467 13.0226 12.6501 12.9724 12.6501C12.6348 12.65 12.586 12.695 12.5618 13.0259C12.5586 13.0701 12.5525 13.1124 12.6035 13.1366C12.6536 13.1604 12.6891 13.1977 12.6647 13.2536C12.6426 13.304 12.5883 13.2783 12.548 13.2836C12.5233 13.2867 12.4977 13.2857 12.4728 13.2838C12.3798 13.2771 12.2542 13.3257 12.2006 13.2625C12.1107 13.1569 12.2939 13.1351 12.3125 13.0459C12.3626 12.8054 12.4253 12.5675 12.4829 12.3286C12.5907 11.8804 12.7091 11.4344 12.8007 10.983C12.838 10.7996 12.9574 10.8557 13.0654 10.8412C13.19 10.8246 13.2382 10.8762 13.2671 10.993C13.4279 11.6446 13.5975 12.2943 13.7625 12.945C13.7808 13.0173 13.7894 13.0919 13.8648 13.1333C13.9079 13.157 13.931 13.194 13.9188 13.2407C13.9005 13.3112 13.8375 13.2795 13.7931 13.2831C13.7309 13.2883 13.6678 13.2844 13.605 13.2844Z" fill="#FEFEFD"/>
<path fill-rule="evenodd" clip-rule="evenodd" d="M18.7933 12.3697C18.788 12.1301 18.8021 11.8896 18.7538 11.652C18.7352 11.5595 18.7161 11.4524 18.597 11.4549C18.4912 11.4571 18.4635 11.5588 18.4529 11.6444C18.3939 12.116 18.3935 12.5886 18.4575 13.0604C18.4698 13.1508 18.4918 13.2634 18.613 13.2578C18.7294 13.2526 18.7408 13.1406 18.7598 13.0502C18.8071 12.8253 18.7892 12.5969 18.7933 12.3697ZM19.1636 12.3684C19.1716 12.6527 19.1558 12.9354 19.0577 13.2058C18.9666 13.4565 18.8083 13.5806 18.5998 13.5766C18.3911 13.5725 18.2289 13.4464 18.152 13.1915C17.9876 12.6467 17.9952 12.0979 18.1434 11.5515C18.1624 11.4814 18.1966 11.4126 18.2363 11.351C18.4252 11.0579 18.788 11.0639 18.9724 11.3632C19.11 11.5865 19.136 11.8397 19.161 12.0913C19.1702 12.1829 19.1632 12.276 19.1636 12.3684Z" fill="#FEFEFD"/>
<path fill-rule="evenodd" clip-rule="evenodd" d="M17.2431 11.8791C17.2434 11.9527 17.2353 12.0277 17.2463 12.0998C17.2579 12.1751 17.1903 12.2924 17.3053 12.3176C17.4391 12.347 17.5542 12.2796 17.601 12.147C17.6596 11.9809 17.661 11.8101 17.5956 11.6426C17.5617 11.5555 17.4936 11.505 17.405 11.4787C17.2911 11.4449 17.2242 11.4634 17.2401 11.603C17.2504 11.6941 17.2427 11.7869 17.2431 11.8791ZM17.1044 11.173C17.1421 11.173 17.1797 11.173 17.2174 11.173C17.7593 11.1739 18.0251 11.4501 17.9956 11.9814C17.9745 12.3616 17.7782 12.5759 17.3937 12.6071C17.2666 12.6174 17.2354 12.6588 17.2449 12.7719C17.2538 12.8759 17.2513 12.9812 17.247 13.0856C17.2428 13.1876 17.2466 13.2612 17.3903 13.2552C17.5132 13.2501 17.4583 13.361 17.4685 13.4243C17.4794 13.4932 17.4627 13.5433 17.372 13.5411C17.209 13.537 17.0456 13.5439 16.8827 13.538C16.8194 13.5357 16.7131 13.5832 16.7184 13.4551C16.7218 13.3712 16.6582 13.2399 16.8369 13.2485C16.9125 13.2522 16.909 13.1976 16.9089 13.1477C16.9068 12.6183 16.9043 12.0889 16.9026 11.5596C16.9024 11.5057 16.8968 11.4595 16.8238 11.4637C16.6579 11.4733 16.7166 11.3505 16.7078 11.2706C16.6939 11.1457 16.7905 11.1758 16.8597 11.1736C16.9412 11.1709 17.0228 11.1729 17.1044 11.173Z" fill="#FEFEFD"/>
<path fill-rule="evenodd" clip-rule="evenodd" d="M8.45475 9.80129C8.11663 10.1333 7.74358 10.1672 7.34434 10.0567C6.99424 9.95981 6.7902 9.69679 6.77434 9.29443C6.75735 8.86386 6.76877 8.43238 6.76029 8.00142C6.75799 7.88772 6.81957 7.89224 6.90098 7.88909C6.99453 7.88554 7.03534 7.90946 7.03428 8.01131C7.03049 8.38068 7.03386 8.75019 7.03737 9.11969C7.04314 9.72475 7.47788 10.008 8.05638 9.78546C8.32544 9.68192 8.42825 9.53521 8.42741 9.25351C8.42618 8.84705 8.42589 8.44059 8.42102 8.03413C8.41996 7.94295 8.42533 7.8868 8.54685 7.8873C8.66432 7.88773 8.69511 7.92271 8.69464 8.03495C8.69225 8.65689 8.69836 9.27889 8.69887 9.90083C8.69885 9.97698 8.74038 10.0755 8.58715 10.0784C8.43817 10.0813 8.46971 9.98942 8.46438 9.90883C8.46287 9.88618 8.46034 9.8636 8.45475 9.80129Z" fill="#FEFEFD"/>
<path fill-rule="evenodd" clip-rule="evenodd" d="M24.0163 12.7068C24.3434 12.7613 24.3498 12.7681 24.2827 13.0684C24.2641 13.1518 24.2379 13.2353 24.2012 13.3123C24.1273 13.4676 24.0053 13.5661 23.8231 13.5732C23.6359 13.5805 23.4971 13.4964 23.4017 13.342C23.3087 13.1915 23.2714 13.0238 23.2496 12.8513C23.1967 12.4328 23.2029 12.0166 23.2907 11.6033C23.3138 11.4939 23.3567 11.3918 23.4196 11.2989C23.4816 11.2074 23.5672 11.149 23.6798 11.1356C23.7938 11.122 23.8894 11.161 23.968 11.2421C24.0393 11.1523 24.1396 11.1665 24.2366 11.1724C24.3123 11.177 24.3 11.236 24.3006 11.283C24.3024 11.4615 24.2978 11.6402 24.305 11.8185C24.309 11.9191 24.2663 11.95 24.1721 11.9417C24.0961 11.9349 24.0023 11.969 24.0043 11.835C24.0058 11.7296 23.9779 11.6267 23.919 11.5362C23.8788 11.4744 23.8178 11.4447 23.7416 11.4562C23.6666 11.4675 23.6377 11.5229 23.6303 11.5867C23.5715 12.0898 23.5728 12.5932 23.6441 13.0953C23.6555 13.1751 23.6973 13.2509 23.8005 13.2534C23.9012 13.2559 23.9434 13.188 23.9683 13.1076C24.0085 12.978 24.0135 12.8426 24.0163 12.7068Z" fill="#FEFEFD"/>
<path fill-rule="evenodd" clip-rule="evenodd" d="M28.0933 12.7017C28.4291 12.7645 28.4318 12.7664 28.3637 13.0705C28.3465 13.1478 28.3219 13.2251 28.2891 13.2974C28.215 13.4607 28.0914 13.5649 27.9009 13.5713C27.7047 13.5779 27.5647 13.4836 27.4713 13.3212C27.3869 13.1742 27.3511 13.0119 27.3306 12.8455C27.2796 12.4332 27.2851 12.0231 27.3692 11.6155C27.3919 11.5058 27.4334 11.4035 27.4929 11.3088C27.5515 11.2156 27.6359 11.138 27.7469 11.1388C27.9385 11.1401 28.1224 11.2401 28.3241 11.1751C28.3885 11.1544 28.3815 11.2392 28.3821 11.2851C28.3845 11.4636 28.3795 11.6422 28.3867 11.8205C28.391 11.9253 28.3396 11.9454 28.2498 11.94C28.1705 11.9353 28.0822 11.96 28.0856 11.8291C28.088 11.7304 28.0603 11.6338 28.0084 11.5468C27.9661 11.4761 27.9033 11.4411 27.8195 11.4552C27.745 11.4676 27.7185 11.5251 27.7112 11.5888C27.6544 12.0918 27.6534 12.5951 27.7271 13.0972C27.7389 13.1777 27.7833 13.2517 27.8862 13.2518C27.9868 13.2519 28.0277 13.1823 28.0511 13.1018C28.0874 12.9775 28.0994 12.8491 28.0933 12.7017Z" fill="#FEFEFD"/>
<path fill-rule="evenodd" clip-rule="evenodd" d="M27.4125 10.6095C27.2473 10.6398 27.227 10.5697 27.252 10.4232C27.4458 9.28494 27.6304 8.14521 27.8229 7.00686C27.8355 6.9325 27.8122 6.83014 27.9343 6.79747C28.1371 6.74323 28.2231 6.80979 28.1901 7.01032C28.0026 8.14953 27.814 9.2886 27.6281 10.4281C27.6075 10.5541 27.5644 10.6412 27.4125 10.6095Z" fill="#FEFEFD"/>
<path fill-rule="evenodd" clip-rule="evenodd" d="M17.2404 10.6165C17.0878 10.6414 17.0581 10.5862 17.083 10.4409C17.2783 9.29684 17.4644 8.15114 17.6548 7.00618C17.6715 6.90601 17.675 6.79929 17.8304 6.79395C18.0243 6.78728 18.0564 6.81275 18.0245 7.00614C17.8367 8.14528 17.6479 9.28436 17.4626 10.4239C17.4409 10.557 17.4005 10.6516 17.2404 10.6165Z" fill="#FEFEFD"/>
<path fill-rule="evenodd" clip-rule="evenodd" d="M32.3191 12.6853C32.325 12.3827 32.2809 12.418 32.5555 12.4707C32.8754 12.5323 33.1929 12.6064 33.5125 12.6704C33.5889 12.6857 33.6821 12.7213 33.7383 12.6386C33.7966 12.5528 33.7493 12.4673 33.6884 12.4039C33.4128 12.1171 33.0467 12.0339 32.6701 11.9791C32.6277 11.9729 32.6031 11.9855 32.6112 12.0408C32.6278 12.1526 32.5563 12.1947 32.4562 12.2031C32.3566 12.2116 32.2797 12.1744 32.2555 12.0753C32.2329 11.983 32.2326 11.8902 32.3284 11.8281C32.3939 11.7856 32.4697 11.7691 32.5437 11.7719C32.997 11.7888 33.4284 11.882 33.7952 12.1652C34.005 12.3271 34.119 12.5376 34.1045 12.8065C34.0911 13.0522 33.9471 13.2116 33.6983 13.1905C33.2542 13.1531 32.823 13.0325 32.3895 12.9344C32.2414 12.9009 32.3675 12.748 32.3191 12.6853Z" fill="#FEFEFD"/>
<path fill-rule="evenodd" clip-rule="evenodd" d="M32.6366 7.06107C32.578 7.06622 32.4938 7.0387 32.4662 7.12416C32.4416 7.20008 32.5024 7.25092 32.5552 7.29433C32.703 7.41569 32.8822 7.47425 33.0615 7.53135C33.0959 7.54223 33.1443 7.56232 33.164 7.52568C33.1774 7.50084 33.1605 7.45578 33.1484 7.42285C33.0758 7.22638 32.8585 7.07214 32.6366 7.06107ZM33.599 6.99538C33.9428 7.04094 34.1048 7.26029 34.0873 7.63384C34.0738 7.9231 33.8988 8.09153 33.5933 8.10303C33.2161 8.11723 32.8711 8.01972 32.5724 7.7888C32.3555 7.6211 32.254 7.39759 32.2686 7.12469C32.2817 6.88121 32.4107 6.76968 32.6603 6.79195C32.974 6.81987 33.2495 7.06332 33.3221 7.41303C33.3537 7.56556 33.4165 7.60997 33.5606 7.58265C33.7167 7.55315 33.7651 7.45664 33.7435 7.31345C33.7266 7.20081 33.6567 7.11009 33.599 6.99538Z" fill="#FEFEFD"/>
<path fill-rule="evenodd" clip-rule="evenodd" d="M30.557 16.1922C30.3686 16.192 30.1802 16.1931 29.9917 16.1911C29.9464 16.1906 29.8854 16.2096 29.8794 16.1312C29.8742 16.0622 29.9168 16.0514 29.9735 16.0485C30.1089 16.0418 30.1355 15.9403 30.1363 15.84C30.1397 15.4211 30.1377 15.0021 30.132 14.5831C30.1305 14.472 30.0952 14.3722 29.9497 14.3729C29.8956 14.3731 29.8703 14.3481 29.8714 14.2937C29.8728 14.2295 29.9185 14.2316 29.9626 14.2316C30.3333 14.2313 30.7039 14.2322 31.0744 14.2309C31.1311 14.2307 31.1684 14.2487 31.1931 14.3009C31.2406 14.4016 31.2933 14.4999 31.3425 14.5998C31.3639 14.6431 31.394 14.6839 31.327 14.7236C31.2569 14.7651 31.2265 14.7323 31.1934 14.679C31.0303 14.4149 30.7667 14.3831 30.4875 14.3769C30.3821 14.3746 30.3608 14.4165 30.3652 14.5073C30.3716 14.6427 30.3618 14.7787 30.3708 14.9138C30.3754 14.9802 30.3166 15.0947 30.4568 15.094C30.5806 15.0932 30.7313 15.1471 30.7998 14.9819C30.8137 14.9486 30.8171 14.9105 30.8221 14.8742C30.8292 14.8223 30.8677 14.8259 30.9055 14.8247C30.9544 14.8232 30.9709 14.8501 30.971 14.8931C30.9719 15.1026 30.9725 15.3121 30.9738 15.5216C30.9742 15.5783 30.9426 15.5952 30.8903 15.5935C30.8275 15.5913 30.8249 15.5493 30.8233 15.5039C30.8197 15.3969 30.7826 15.3103 30.6686 15.2757C30.4476 15.2088 30.3698 15.2672 30.3708 15.4976C30.3714 15.6393 30.375 15.781 30.3715 15.9227C30.3693 16.0026 30.3837 16.0458 30.4824 16.0463C30.8024 16.0478 31.1033 16.0163 31.2695 15.6949C31.3017 15.6324 31.3429 15.6198 31.4062 15.6454C31.4814 15.6758 31.4424 15.7224 31.4284 15.7663C31.4265 15.7722 31.4245 15.7781 31.4224 15.7839C31.2709 16.1924 31.2709 16.1924 30.8208 16.1922C30.7329 16.1922 30.645 16.1922 30.557 16.1922Z" fill="#FEFEFD"/>
<path fill-rule="evenodd" clip-rule="evenodd" d="M21.983 16.1983C21.7882 16.1982 21.5935 16.1988 21.3988 16.1974C21.358 16.1971 21.306 16.2093 21.2997 16.1433C21.2935 16.0791 21.3255 16.0572 21.3876 16.0549C21.534 16.0498 21.5564 15.9406 21.5571 15.8336C21.56 15.4208 21.5579 15.0079 21.5523 14.5952C21.5508 14.4856 21.5222 14.3817 21.3757 14.3796C21.3244 14.3789 21.2926 14.3624 21.2913 14.3057C21.2898 14.2273 21.3476 14.2379 21.3956 14.2379C21.76 14.2371 22.1243 14.2388 22.4885 14.2367C22.5544 14.2364 22.592 14.2596 22.6186 14.3187C22.6619 14.4144 22.7124 14.507 22.7605 14.6005C22.7871 14.6522 22.8121 14.6977 22.7356 14.7362C22.6703 14.769 22.6447 14.7346 22.6171 14.6897C22.4503 14.4177 22.1801 14.3857 21.8945 14.3841C21.8147 14.3837 21.7818 14.4075 21.7852 14.4893C21.7909 14.6246 21.7791 14.761 21.7916 14.8956C21.7986 14.9699 21.721 15.101 21.8898 15.1018C22.029 15.1025 22.1934 15.1436 22.2355 14.9412C22.246 14.8907 22.2281 14.8247 22.3196 14.83C22.4281 14.8364 22.3886 14.9162 22.3902 14.9676C22.3957 15.1399 22.3942 15.3125 22.3937 15.485C22.3935 15.5381 22.4074 15.6015 22.3162 15.5999C22.2391 15.5985 22.2463 15.5465 22.2429 15.4974C22.2355 15.3896 22.192 15.3075 22.0761 15.2789C21.8496 15.2232 21.7899 15.269 21.7907 15.4979C21.7913 15.6335 21.7982 15.7694 21.7905 15.9045C21.7843 16.0128 21.8119 16.0549 21.9343 16.0537C22.2509 16.0507 22.5386 16.0045 22.6961 15.6902C22.7246 15.633 22.7663 15.6308 22.8206 15.6495C22.8954 15.675 22.8701 15.7208 22.8503 15.767C22.8478 15.7727 22.8463 15.7788 22.8443 15.7846C22.6947 16.1986 22.6947 16.1986 22.2468 16.1984C22.1588 16.1984 22.0709 16.1984 21.983 16.1983Z" fill="#FEFEFD"/>
<path fill-rule="evenodd" clip-rule="evenodd" d="M24.9873 15.2072C24.9903 15.4168 24.9965 15.627 25.0901 15.8211C25.158 15.9622 25.2595 16.0623 25.4355 16.0642C25.611 16.0663 25.728 15.9749 25.7823 15.8292C25.9335 15.4237 25.9359 15.0109 25.7756 14.6051C25.7179 14.4591 25.6045 14.3661 25.4287 14.3678C25.2523 14.3695 25.1551 14.4716 25.0869 14.6122C24.9955 14.8003 24.9906 15.0038 24.9873 15.2072ZM26.1727 15.1671C26.1747 15.4531 26.1313 15.6867 26.0034 15.8986C25.7352 16.3428 25.148 16.3526 24.8845 15.905C24.6317 15.4758 24.633 15.0223 24.8426 14.5785C24.9552 14.34 25.1555 14.1977 25.4367 14.1995C25.7181 14.2013 25.9055 14.3522 26.0322 14.585C26.1379 14.7794 26.1692 14.9918 26.1727 15.1671Z" fill="#FEFEFD"/>
<path fill-rule="evenodd" clip-rule="evenodd" d="M32.4701 8.62644C32.3852 8.50002 32.2949 8.39393 32.3048 8.24587C32.3148 8.09623 32.4006 8.02577 32.5462 8.01826C32.6906 8.01082 32.7878 8.0726 32.8214 8.21537C32.8388 8.28917 32.8191 8.3521 32.7447 8.38407C32.6793 8.41214 32.5808 8.40886 32.6074 8.51844C32.633 8.62444 32.6865 8.70753 32.8113 8.73228C33.1614 8.80148 33.5087 8.8852 33.8601 8.94586C34.0221 8.97373 34.0937 9.02476 34.0845 9.20097C34.069 9.49543 34.0815 9.49596 33.7912 9.43632C33.3557 9.34688 32.9213 9.25287 32.4844 9.17098C32.3501 9.14576 32.2841 9.09758 32.3047 8.95616C32.3152 8.88389 32.3122 8.80823 32.3049 8.7351C32.2922 8.60856 32.4069 8.66848 32.4701 8.62644Z" fill="#FEFEFD"/>
<path fill-rule="evenodd" clip-rule="evenodd" d="M26.6281 15.1662C26.6273 14.9875 26.6262 14.8087 26.6258 14.6299C26.6256 14.4982 26.6138 14.3753 26.4328 14.3756C26.3732 14.3757 26.3604 14.341 26.3617 14.291C26.3632 14.2382 26.3999 14.2347 26.4387 14.2346C26.6461 14.2343 26.8534 14.2346 27.0608 14.2346C27.1096 14.2346 27.1469 14.245 27.145 14.3058C27.143 14.3644 27.1063 14.3756 27.0576 14.3767C26.914 14.38 26.8833 14.4725 26.8838 14.5896C26.8856 14.9594 26.8826 15.3293 26.8907 15.6989C26.8963 15.9494 27.0399 16.0853 27.2755 16.0842C27.4995 16.0832 27.6189 15.9673 27.6235 15.7152C27.6303 15.3395 27.6234 14.9634 27.6209 14.5874C27.6202 14.471 27.5851 14.3789 27.4423 14.3755C27.3812 14.374 27.373 14.3333 27.3758 14.2862C27.379 14.2325 27.4216 14.2353 27.4582 14.2352C27.6342 14.2344 27.81 14.2351 27.986 14.2351C28.0293 14.2351 28.0574 14.2498 28.0563 14.2987C28.0556 14.3393 28.0469 14.3747 27.9975 14.3748C27.7931 14.3754 27.7942 14.5156 27.795 14.6577C27.7971 15.0091 27.8003 15.3604 27.799 15.7117C27.7977 16.0539 27.5975 16.2301 27.2147 16.2322C26.8529 16.2342 26.6408 16.0506 26.6312 15.7209C26.6258 15.5361 26.6289 15.3511 26.6281 15.1662Z" fill="#FEFEFD"/>
<path fill-rule="evenodd" clip-rule="evenodd" d="M17.6749 15.3728C17.5918 15.1042 17.5139 14.8526 17.4257 14.5671C17.3733 14.7248 17.3323 14.8468 17.2923 14.9692C17.1416 15.4298 17.1418 15.4298 17.6749 15.3728ZM17.971 16.2014C17.8641 16.2014 17.7572 16.2021 17.6504 16.2009C17.6129 16.2005 17.5726 16.1997 17.5682 16.1478C17.564 16.0981 17.5781 16.0611 17.6369 16.0609C17.783 16.0604 17.8556 15.9891 17.8119 15.8506C17.7706 15.72 17.7982 15.516 17.548 15.5561C17.4869 15.566 17.4226 15.5575 17.3597 15.5576C17.1075 15.5575 17.0078 15.658 17.0115 15.9074C17.0129 16.0041 17.0597 16.0574 17.1603 16.0588C17.2139 16.0596 17.2422 16.0807 17.2402 16.1365C17.2379 16.1977 17.196 16.2016 17.1492 16.2015C16.9732 16.2012 16.7972 16.2016 16.6212 16.2006C16.5845 16.2004 16.5424 16.2035 16.538 16.1499C16.5342 16.1027 16.5428 16.0662 16.6005 16.0552C16.7542 16.0262 16.802 15.906 16.844 15.7795C16.9994 15.3118 17.1575 14.8449 17.3118 14.377C17.3383 14.2964 17.3594 14.2345 17.4716 14.2367C17.5818 14.2388 17.5879 14.3104 17.6093 14.3787C17.752 14.8323 17.8927 15.2864 18.0364 15.7396C18.0847 15.8918 18.1161 16.0616 18.337 16.0636C18.3883 16.0641 18.3876 16.1082 18.3878 16.1459C18.388 16.1993 18.3487 16.2011 18.3104 16.2013C18.1973 16.202 18.0841 16.2015 17.971 16.2014Z" fill="#FEFEFD"/>
<path fill-rule="evenodd" clip-rule="evenodd" d="M7.30469 12.0489C7.30365 11.7843 7.30341 11.5196 7.30122 11.255C7.30042 11.1536 7.3189 11.054 7.21236 10.9727C7.14557 10.9217 7.16105 10.8484 7.27165 10.8481C7.41581 10.8477 7.55997 10.8473 7.7042 10.8485C7.73952 10.8488 7.78316 10.8413 7.79367 10.8918C7.80192 10.9314 7.78946 10.9685 7.75496 10.9884C7.66822 11.0385 7.67709 11.1186 7.67748 11.199C7.6805 11.7774 7.68346 12.356 7.68365 12.9345C7.68371 13.0181 7.68697 13.0927 7.7737 13.1394C7.81321 13.1608 7.84213 13.1972 7.82979 13.2463C7.81432 13.3072 7.76005 13.2859 7.72103 13.2866C7.57061 13.2892 7.42018 13.2892 7.26968 13.2866C7.23099 13.2858 7.17655 13.3076 7.16228 13.2449C7.15316 13.2049 7.16913 13.168 7.20511 13.1507C7.31867 13.0964 7.30985 12.9982 7.30885 12.8982C7.30558 12.6151 7.30581 12.332 7.30469 12.0489Z" fill="#FEFEFD"/>
<path fill-rule="evenodd" clip-rule="evenodd" d="M13.6827 8.91881C13.6819 8.72181 13.6704 8.52408 13.6836 8.32807C13.6947 8.16336 13.6487 8.0895 13.4697 8.11356C13.4138 8.12109 13.3212 8.15449 13.3079 8.04477C13.2966 7.95153 13.2997 7.86246 13.436 7.88836C13.6534 7.92963 13.71 7.83044 13.6793 7.63793C13.6678 7.56573 13.6788 7.49043 13.6761 7.41664C13.6729 7.32651 13.6649 7.25319 13.8044 7.254C13.9345 7.25476 13.9497 7.31062 13.941 7.41007C13.9368 7.45891 13.9406 7.50854 13.9408 7.55778C13.942 7.8598 13.9418 7.86357 14.2532 7.8854C14.3371 7.89124 14.358 7.91989 14.3589 7.99586C14.3599 8.07752 14.3418 8.11418 14.2466 8.11952C13.9429 8.13661 13.9432 8.14117 13.9444 8.43876C13.9458 8.78962 13.9506 9.14061 13.9473 9.4914C13.9456 9.67325 13.9949 9.80898 14.2041 9.83258C14.3259 9.84636 14.2845 9.93675 14.2864 10.0021C14.289 10.0931 14.2131 10.0677 14.1629 10.068C13.8863 10.07 13.7023 9.88874 13.6861 9.60213C13.6854 9.58982 13.6854 9.57751 13.6854 9.56521C13.6845 9.34974 13.6837 9.13428 13.6827 8.91881Z" fill="#FEFEFD"/>
<path fill-rule="evenodd" clip-rule="evenodd" d="M23.3618 15.2336C23.3628 15.4256 23.3801 15.6153 23.4668 15.7913C23.5489 15.9576 23.6695 16.0707 23.875 16.0637C24.0757 16.0569 24.1725 15.9296 24.2427 15.7694C24.2599 15.73 24.2729 15.6887 24.2844 15.6472C24.2992 15.5935 24.3166 15.5546 24.3873 15.5854C24.4454 15.6107 24.4836 15.6358 24.4583 15.7084C24.3766 15.9432 24.2687 16.1564 23.9938 16.2164C23.7256 16.2749 23.4923 16.2027 23.3218 15.9882C23.1009 15.7104 23.0442 15.3859 23.0889 15.0451C23.1187 14.8176 23.1896 14.6013 23.3407 14.419C23.5278 14.1932 23.759 14.1443 24.0235 14.2742C24.0455 14.2849 24.0774 14.3123 24.087 14.3061C24.3229 14.153 24.2642 14.395 24.3101 14.4744C24.3585 14.5583 24.3722 14.6608 24.4083 14.7524C24.4294 14.8059 24.4137 14.8326 24.3653 14.8523C24.315 14.8728 24.2846 14.8561 24.2593 14.8102C24.2088 14.7183 24.1627 14.6223 24.0991 14.5395C23.921 14.3073 23.6486 14.3226 23.503 14.5736C23.3851 14.7768 23.3644 15.0042 23.3618 15.2336Z" fill="#FEFEFD"/>
<path fill-rule="evenodd" clip-rule="evenodd" d="M28.8188 15.145C28.8179 14.9356 28.8085 14.7257 28.8191 14.517C28.8266 14.3694 28.762 14.3703 28.6501 14.4009C28.4666 14.451 28.3543 14.5757 28.2623 14.728C28.238 14.7682 28.2352 14.8486 28.1469 14.8025C28.0762 14.7654 28.0972 14.7174 28.1166 14.6619C28.267 14.2332 28.2665 14.233 28.7271 14.2331C28.8967 14.2332 29.0663 14.2283 29.2355 14.2351C29.3452 14.2394 29.4908 14.1797 29.5568 14.2673C29.6553 14.398 29.7044 14.5646 29.773 14.7166C29.8002 14.7766 29.7451 14.7901 29.7101 14.8097C29.6461 14.8455 29.6363 14.7835 29.6185 14.7512C29.5251 14.5825 29.4031 14.4503 29.2052 14.3977C29.0962 14.3687 29.044 14.3807 29.0464 14.5108C29.0543 14.9357 29.0526 15.3607 29.0538 15.7856C29.0542 15.9407 29.1023 16.0537 29.2874 16.052C29.3413 16.0515 29.3881 16.0558 29.3875 16.128C29.3869 16.207 29.3288 16.1935 29.2819 16.1937C29.0558 16.1948 28.8298 16.195 28.6038 16.1933C28.5577 16.1929 28.497 16.2097 28.4917 16.132C28.4868 16.0623 28.5316 16.0507 28.5877 16.052C28.7862 16.0565 28.8261 15.9358 28.8224 15.7731C28.8176 15.5638 28.8197 15.3544 28.8188 15.145Z" fill="#FEFEFD"/>
<path fill-rule="evenodd" clip-rule="evenodd" d="M11.5251 8.35343C11.5234 7.93562 11.5246 7.51774 11.5181 7.09992C11.5166 6.99917 11.5411 6.96114 11.6517 6.96093C11.7631 6.9608 11.7855 7.00075 11.7855 7.10057C11.7851 7.8932 11.7916 8.68583 11.791 9.47853C11.791 9.6486 11.8254 9.78395 12.0188 9.8276C12.1295 9.85247 12.0968 9.94237 12.0909 10.0079C12.0815 10.1113 11.9967 10.0647 11.9453 10.0562C11.6737 10.011 11.5346 9.84965 11.5309 9.57009C11.5255 9.16458 11.5268 8.75894 11.5251 8.35343Z" fill="#FEFEFD"/>
<path fill-rule="evenodd" clip-rule="evenodd" d="M19.8229 16.1991C19.6409 16.1991 19.4589 16.1997 19.2768 16.1985C19.2295 16.1981 19.1696 16.2124 19.1682 16.1342C19.167 16.0651 19.2131 16.0563 19.2685 16.0563C19.4124 16.0564 19.4479 15.9602 19.4482 15.8466C19.4493 15.428 19.4473 15.0094 19.4431 14.5907C19.4419 14.4653 19.3934 14.3736 19.2428 14.3797C19.1891 14.3819 19.1612 14.3568 19.1604 14.303C19.1595 14.2399 19.2036 14.2382 19.2498 14.2383C19.4569 14.2385 19.664 14.2383 19.8712 14.2388C19.9156 14.2389 19.9613 14.2379 19.9634 14.3014C19.9654 14.3565 19.938 14.3815 19.8847 14.3795C19.7082 14.373 19.6784 14.4899 19.6782 14.623C19.6776 15.0539 19.6836 15.4848 19.6806 15.9158C19.6799 16.0186 19.7098 16.0524 19.8184 16.054C20.1191 16.0586 20.3595 15.965 20.5056 15.6944C20.536 15.6381 20.562 15.5766 20.6434 15.6138C20.7426 15.659 20.6649 15.7228 20.6476 15.7681C20.483 16.2 20.4814 16.1993 20.0112 16.1992C19.9484 16.1992 19.8857 16.1991 19.8229 16.1991Z" fill="#FEFEFD"/>
<path fill-rule="evenodd" clip-rule="evenodd" d="M25.3125 17.635C25.3121 17.5367 25.3043 17.4378 25.3131 17.3403C25.3243 17.2159 25.2641 17.1632 25.1491 17.1383C25.0167 17.1094 24.9146 17.1567 24.8298 17.2463C24.6558 17.43 24.6567 17.8472 24.8287 18.0351C24.9309 18.1469 25.0601 18.1832 25.2033 18.1387C25.3385 18.0967 25.3124 17.977 25.3132 17.8746C25.3141 17.7947 25.3128 17.7148 25.3125 17.635ZM25.3103 17.0564C25.3096 16.8946 25.3113 16.7352 25.3072 16.576C25.3051 16.4954 25.3237 16.4509 25.42 16.4514C25.5208 16.452 25.5288 16.5065 25.5289 16.5821C25.5297 17.0555 25.5319 17.529 25.5346 18.0024C25.535 18.0878 25.5074 18.1576 25.4364 18.2101C25.1223 18.4429 24.625 18.2812 24.5141 17.912C24.4758 17.7843 24.4727 17.6562 24.4981 17.5288C24.5807 17.1135 24.8461 16.9575 25.3103 17.0564Z" fill="#FEFEFD"/>
<path fill-rule="evenodd" clip-rule="evenodd" d="M28.6299 17.1193C28.7077 17.0842 28.7566 17.0585 28.808 17.0396C29.1256 16.9224 29.3683 17.0729 29.3826 17.4044C29.3929 17.6439 29.3853 17.8842 29.3888 18.1241C29.3898 18.2073 29.381 18.2657 29.2701 18.2642C29.163 18.2628 29.1676 18.2005 29.1676 18.13C29.1674 17.9023 29.1678 17.6746 29.1643 17.447C29.1614 17.2579 29.0621 17.1492 28.9036 17.1536C28.7264 17.1585 28.631 17.2611 28.6313 17.4473C28.6318 17.6688 28.6333 17.8903 28.6338 18.1118C28.6339 18.1851 28.6483 18.2611 28.5285 18.2638C28.4139 18.2664 28.4133 18.2024 28.4132 18.1221C28.4123 17.6115 28.41 17.1009 28.407 16.5902C28.4065 16.512 28.4021 16.4454 28.5187 16.4473C28.6374 16.4492 28.6276 16.5213 28.6278 16.5964C28.6282 16.7622 28.6291 16.9278 28.6299 17.1193Z" fill="#FEFEFD"/>
<path fill-rule="evenodd" clip-rule="evenodd" d="M16.889 17.0639C16.8894 17.1496 16.8895 17.2353 16.8901 17.321C16.8905 17.3646 16.8921 17.4036 16.9472 17.4223C17.0669 17.4632 17.3139 17.3934 17.3939 17.2911C17.4899 17.1684 17.4949 16.9657 17.4048 16.8426C17.3286 16.7385 17.0852 16.6573 16.9636 16.7025C16.8186 16.7564 16.914 16.882 16.8896 16.9724C16.8818 17.0009 16.8885 17.0333 16.889 17.0639ZM16.6579 17.4354C16.657 17.2017 16.6596 16.968 16.6531 16.7344C16.6506 16.6426 16.6827 16.5993 16.7755 16.5886C16.9628 16.5667 17.1498 16.55 17.3359 16.595C17.5677 16.6511 17.6894 16.7853 17.7102 17.0009C17.7318 17.2249 17.6186 17.4144 17.4068 17.5014C17.2962 17.5471 17.1777 17.5772 17.0589 17.5637C16.9069 17.5464 16.8785 17.6128 16.8894 17.7419C16.8997 17.8641 16.8934 17.9878 16.8927 18.1107C16.8923 18.1874 16.9164 18.2712 16.7813 18.2725C16.6529 18.2737 16.66 18.2018 16.6602 18.118C16.6608 17.8905 16.6588 17.663 16.6579 17.4354Z" fill="#FEFEFD"/>
<path fill-rule="evenodd" clip-rule="evenodd" d="M20.0892 17.6012C20.0898 17.7183 20.0845 17.8358 20.092 17.9525C20.1047 18.1493 20.0088 18.2479 19.8175 18.2812C19.7113 18.2997 19.6059 18.3106 19.4992 18.3015C19.2378 18.2792 19.1283 18.1674 19.1228 17.9095C19.1175 17.6691 19.1207 17.4286 19.1182 17.1883C19.1173 17.1082 19.1182 17.0445 19.2329 17.045C19.3555 17.0453 19.3385 17.1218 19.3389 17.1945C19.3403 17.4288 19.3378 17.6631 19.3431 17.8973C19.3475 18.0909 19.4299 18.1646 19.6247 18.1627C19.8107 18.1611 19.8693 18.0987 19.8698 17.8952C19.8704 17.6548 19.8698 17.4144 19.8664 17.1739C19.8652 17.0955 19.8782 17.0454 19.977 17.0458C20.0768 17.0461 20.0889 17.099 20.088 17.1759C20.0864 17.3176 20.0885 17.4594 20.0892 17.6012Z" fill="#FEFEFD"/>
<path fill-rule="evenodd" clip-rule="evenodd" d="M18.0179 17.6094C18.0158 17.7724 18.0451 17.9157 18.1398 18.0383C18.2739 18.2115 18.4824 18.2042 18.5811 18.0133C18.7049 17.7741 18.6985 17.524 18.5629 17.2905C18.4424 17.083 18.2036 17.093 18.0869 17.3018C18.0318 17.4003 18.0128 17.5089 18.0179 17.6094ZM17.7918 17.6612C17.7922 17.5034 17.8305 17.3561 17.9237 17.2266C18.1321 16.9367 18.5507 16.9367 18.7506 17.2329C18.9065 17.4637 18.9332 17.7147 18.821 17.9717C18.7329 18.1739 18.5861 18.3037 18.3494 18.3049C18.1056 18.306 17.9534 18.1732 17.8571 17.9663C17.8122 17.8699 17.7924 17.7673 17.7918 17.6612Z" fill="#FEFEFD"/>
<path fill-rule="evenodd" clip-rule="evenodd" d="M22.1752 17.6643C22.1785 17.5263 22.1516 17.3943 22.073 17.2784C21.9469 17.0925 21.7374 17.0944 21.6142 17.2788C21.4867 17.4698 21.5114 17.8702 21.6617 18.0475C21.8015 18.2123 21.9996 18.1929 22.104 18.0021C22.1613 17.8972 22.1809 17.783 22.1752 17.6643ZM22.3996 17.6088C22.4054 17.8066 22.3654 17.941 22.2882 18.0639C22.0934 18.3739 21.6739 18.3904 21.4499 18.0979C21.2611 17.8515 21.2597 17.4608 21.4467 17.2147C21.6577 16.9371 22.0602 16.9426 22.2644 17.226C22.3585 17.3565 22.3924 17.5049 22.3996 17.6088Z" fill="#FEFEFD"/>
<path fill-rule="evenodd" clip-rule="evenodd" d="M30.2637 17.8574C30.2627 17.6015 30.2492 17.5935 30.0149 17.713C29.9819 17.7298 29.9501 17.7497 29.921 17.7722C29.8351 17.8383 29.8296 17.929 29.8549 18.0223C29.8807 18.1169 29.9569 18.1572 30.0502 18.1692C30.2205 18.191 30.2649 18.1257 30.2637 17.8574ZM30.4739 17.7038C30.4743 17.7837 30.473 17.8637 30.4753 17.9435C30.4799 18.1024 30.4547 18.232 30.26 18.2751C30.0061 18.3314 29.7637 18.287 29.6719 18.146C29.5744 17.9964 29.621 17.8043 29.7831 17.6944C29.8979 17.6166 30.0293 17.571 30.1623 17.54C30.2791 17.5127 30.264 17.4358 30.2611 17.3574C30.2577 17.2614 30.2427 17.167 30.1268 17.1418C30.041 17.1232 29.9675 17.1486 29.9167 17.2269C29.8768 17.2884 29.876 17.3953 29.7578 17.3744C29.7164 17.3671 29.695 17.3352 29.6931 17.2945C29.6887 17.1975 29.742 17.1318 29.8205 17.0842C29.9738 16.9908 30.1392 16.9677 30.3043 17.0437C30.4598 17.1153 30.4654 17.2661 30.472 17.4087C30.4764 17.5069 30.4735 17.6054 30.4739 17.7038Z" fill="#FEFEFD"/>
<path fill-rule="evenodd" clip-rule="evenodd" d="M26.823 17.64C26.6862 17.6593 26.5701 17.6987 26.4749 17.7805C26.3813 17.8608 26.3813 17.9655 26.4344 18.0651C26.4879 18.1654 26.5886 18.1852 26.6933 18.1685C26.8131 18.1495 26.8284 18.0608 26.825 17.9607C26.8216 17.8571 26.8234 17.7533 26.823 17.64ZM27.0341 17.6886C27.0344 17.7747 27.033 17.8607 27.0355 17.9468C27.0402 18.1062 27.0132 18.2346 26.8188 18.2774C26.5645 18.3334 26.3228 18.2885 26.2314 18.1468C26.1386 18.0029 26.1788 17.8139 26.3288 17.7061C26.4414 17.625 26.5728 17.58 26.7059 17.5472C26.8063 17.5225 26.8324 17.4696 26.8233 17.3765C26.814 17.2828 26.8149 17.1841 26.7037 17.1489C26.6119 17.1199 26.5319 17.1448 26.4765 17.23C26.4363 17.2916 26.4349 17.3981 26.3169 17.3762C26.2755 17.3686 26.2546 17.3359 26.2531 17.2951C26.2496 17.1983 26.3033 17.1328 26.3817 17.0855C26.5353 16.9925 26.7007 16.9696 26.8656 17.0463C27.0207 17.1185 27.0256 17.2694 27.0322 17.412C27.0364 17.504 27.0337 17.5964 27.0341 17.6886Z" fill="#FEFEFD"/>
<path fill-rule="evenodd" clip-rule="evenodd" d="M12.8131 8.97926C12.8143 9.29311 12.8122 9.60696 12.8184 9.92074C12.8206 10.0235 12.8064 10.0767 12.6791 10.0743C12.5629 10.0721 12.5485 10.0261 12.5486 9.93057C12.5495 9.29673 12.5471 8.66288 12.5416 8.0291C12.5408 7.93432 12.5536 7.88695 12.6705 7.88482C12.797 7.88248 12.8129 7.93421 12.8116 8.03779C12.8075 8.3515 12.812 8.66542 12.8131 8.97926Z" fill="#FEFEFD"/>
<path fill-rule="evenodd" clip-rule="evenodd" d="M27.241 17.6524C27.2443 17.2423 27.4779 16.9792 27.8167 17.0059C27.9715 17.0182 28.0917 17.0875 28.1622 17.227C28.1915 17.2847 28.2075 17.3477 28.1386 17.3901C28.0653 17.4352 28.0172 17.387 27.9873 17.3305C27.925 17.2126 27.849 17.1192 27.6965 17.1513C27.5371 17.1849 27.4877 17.3103 27.4547 17.4474C27.4155 17.61 27.4375 17.7674 27.5108 17.9144C27.6315 18.1567 27.8836 18.178 28.0544 17.9691C28.0873 17.9288 28.0985 17.8238 28.1808 17.8802C28.2373 17.919 28.1957 17.9977 28.167 18.0499C28.0841 18.2005 27.9559 18.2897 27.7768 18.2975C27.591 18.3056 27.4491 18.2276 27.3496 18.0759C27.2653 17.9472 27.2404 17.8025 27.241 17.6524Z" fill="#FEFEFD"/>
<path fill-rule="evenodd" clip-rule="evenodd" d="M20.7316 17.968C20.8337 17.6702 20.9175 17.421 21.0054 17.1733C21.0243 17.12 21.0272 17.0464 21.1163 17.0473C21.1802 17.048 21.2312 17.0495 21.198 17.1382C21.0669 17.4893 20.939 17.8415 20.8097 18.1933C20.794 18.2361 20.7713 18.2668 20.7168 18.2685C20.6571 18.2702 20.6229 18.2443 20.6028 18.1928C20.4667 17.8423 20.3304 17.4919 20.1942 17.1415C20.1778 17.0991 20.161 17.0524 20.2325 17.0496C20.3039 17.0469 20.3855 17.0222 20.4206 17.1219C20.4859 17.3078 20.5548 17.4927 20.6227 17.6778C20.6523 17.7586 20.6831 17.8388 20.7316 17.968Z" fill="#FEFEFD"/>
<path fill-rule="evenodd" clip-rule="evenodd" d="M30.9387 16.6856C30.9391 16.7816 30.9436 16.837 30.9386 16.8914C30.9295 16.9923 30.947 17.0609 31.0762 17.0421C31.1128 17.0369 31.1754 17.0207 31.1782 17.0865C31.1808 17.1459 31.1262 17.1508 31.083 17.144C30.9407 17.1215 30.9365 17.2047 30.9399 17.3074C30.9456 17.4669 30.9425 17.6266 30.9432 17.7862C30.9445 18.1041 30.9445 18.1041 31.2226 18.2247C31.1246 18.3189 31.0195 18.3071 30.9107 18.2716C30.7773 18.2281 30.7298 18.1226 30.7262 17.9993C30.7193 17.7723 30.7234 17.545 30.7205 17.3179C30.7195 17.2384 30.7524 17.136 30.6064 17.1397C30.5695 17.1405 30.5634 17.073 30.5708 17.0728C30.771 17.0664 30.6827 16.8414 30.8049 16.778C30.8411 16.7592 30.8727 16.7318 30.9387 16.6856Z" fill="#FEFEFD"/>
<path fill-rule="evenodd" clip-rule="evenodd" d="M23.1588 17.6834C23.1583 17.5606 23.1692 17.4367 23.1546 17.3156C23.1325 17.132 23.2287 17.06 23.3911 17.0301C23.5149 17.0072 23.6382 16.9876 23.76 17.0354C23.8371 17.0655 23.868 17.1263 23.8288 17.1979C23.7885 17.2715 23.7273 17.2537 23.6743 17.2044C23.612 17.1467 23.5446 17.1002 23.4568 17.1394C23.3535 17.1854 23.3786 17.2824 23.3784 17.3654C23.3776 17.623 23.3787 17.8807 23.3815 18.1383C23.3824 18.2147 23.372 18.2667 23.2726 18.2675C23.1758 18.2683 23.1582 18.2236 23.1597 18.1434C23.1627 17.9901 23.1595 17.8367 23.1588 17.6834Z" fill="#FEFEFD"/>
<path fill-rule="evenodd" clip-rule="evenodd" d="M15.1326 14.2469C14.9942 14.2339 14.9195 14.1107 14.9822 13.9946C15.0701 13.8319 15.1638 13.6722 15.2493 13.5083C15.2947 13.4211 15.3357 13.3941 15.4343 13.4545C15.6671 13.5969 15.6705 13.5912 15.5093 13.807C15.4169 13.931 15.3251 14.0552 15.2326 14.1792C15.2073 14.2131 15.1841 14.2512 15.1326 14.2469Z" fill="#FEFEFD"/>
<path fill-rule="evenodd" clip-rule="evenodd" d="M9.16187 14.2507C9.0229 14.2373 8.94881 14.1148 9.0117 13.9983C9.09965 13.8356 9.19342 13.6759 9.2788 13.5119C9.32441 13.4245 9.36554 13.3983 9.46388 13.4585C9.69648 13.6008 9.6999 13.5952 9.53873 13.8111C9.44629 13.935 9.3544 14.0593 9.26197 14.1832C9.23653 14.2172 9.21333 14.2552 9.16187 14.2507Z" fill="#FEFEFD"/>
<path fill-rule="evenodd" clip-rule="evenodd" d="M22.6671 17.6587C22.6666 17.4986 22.6668 17.3384 22.665 17.1783C22.6641 17.1067 22.661 17.0445 22.7677 17.0449C22.8608 17.0453 22.8869 17.0827 22.8865 17.1668C22.8852 17.4932 22.8865 17.8197 22.8902 18.1461C22.8912 18.2294 22.8668 18.2674 22.7732 18.2691C22.667 18.271 22.6678 18.2123 22.6684 18.1392C22.6697 17.9791 22.6677 17.8189 22.6671 17.6587Z" fill="#FEFEFD"/>
<path fill-rule="evenodd" clip-rule="evenodd" d="M32.1211 11.138C32.1261 11.282 32.0033 11.4125 31.8552 11.4207C31.6989 11.4293 31.5632 11.3048 31.5598 11.1497C31.5564 10.9956 31.667 10.877 31.821 10.8696C31.98 10.8619 32.1157 10.9833 32.1211 11.138Z" fill="#FEFEFD"/>
<path fill-rule="evenodd" clip-rule="evenodd" d="M32.1445 18.5844C32.1438 18.7301 32.0187 18.8508 31.8668 18.8523C31.7014 18.8539 31.5809 18.7354 31.5832 18.5738C31.5854 18.4258 31.7076 18.3039 31.8566 18.3009C32.0102 18.2979 32.1453 18.4309 32.1445 18.5844Z" fill="#FEFEFD"/>
<path fill-rule="evenodd" clip-rule="evenodd" d="M16.0883 6.98646C15.9072 7.22062 15.7554 7.42836 15.5899 7.6249C15.5233 7.70397 15.4179 7.65717 15.2998 7.65879C15.4394 7.43508 15.5541 7.22289 15.6979 7.03197C15.7829 6.91906 15.9263 6.99376 16.0883 6.98646Z" fill="#FEFEFD"/>
<path fill-rule="evenodd" clip-rule="evenodd" d="M20.9926 14.4453C20.9923 14.6087 20.9172 14.7409 20.8103 14.8587C20.7874 14.884 20.7605 14.921 20.7174 14.8851C20.6788 14.8528 20.6973 14.8203 20.7199 14.7885C20.8054 14.6681 20.8554 14.5615 20.6884 14.4502C20.6106 14.3984 20.6488 14.2996 20.7173 14.2423C20.7885 14.1826 20.8681 14.1833 20.9352 14.2552C20.985 14.3085 20.9965 14.3753 20.9926 14.4453Z" fill="#FEFEFD"/>
<path fill-rule="evenodd" clip-rule="evenodd" d="M12.6703 6.9278C12.8076 6.93546 12.8966 7.00199 12.8977 7.13028C12.8987 7.25831 12.8104 7.3326 12.6799 7.33275C12.557 7.33298 12.4771 7.26169 12.4701 7.14147C12.4623 7.00827 12.5484 6.94505 12.6703 6.9278Z" fill="#FEFEFD"/>
<path fill-rule="evenodd" clip-rule="evenodd" d="M17.5894 14.1226C17.3811 14.0613 17.2133 13.9254 17.0388 13.8038C16.9947 13.773 16.9937 13.7161 17.0315 13.6722C17.0831 13.612 17.1464 13.6236 17.1965 13.6684C17.343 13.7992 17.4845 13.9351 17.6281 14.069C17.6152 14.0869 17.6022 14.1047 17.5894 14.1226Z" fill="#FEFEFD"/>
<path fill-rule="evenodd" clip-rule="evenodd" d="M21.8338 14.0448C21.9681 13.9265 22.1019 13.8075 22.237 13.69C22.2959 13.6389 22.3629 13.5926 22.4309 13.6712C22.5025 13.7539 22.4393 13.809 22.3718 13.8476C22.2107 13.9399 22.0716 14.0759 21.8838 14.1169C21.8671 14.0929 21.8505 14.0689 21.8338 14.0448Z" fill="#FEFEFD"/>
<path fill-rule="evenodd" clip-rule="evenodd" d="M25.8108 17.042C25.927 16.8934 25.9618 16.7627 25.8462 16.6234C25.8207 16.5927 25.8693 16.5322 25.9247 16.5185C26.0076 16.4979 26.0546 16.5469 26.085 16.6116C26.1549 16.7602 26.0351 16.9728 25.8108 17.042Z" fill="#FEFEFD"/>
<path fill-rule="evenodd" clip-rule="evenodd" d="M22.8879 16.7097C22.8825 16.7969 22.8354 16.8473 22.7604 16.8485C22.6861 16.8497 22.6295 16.8024 22.6294 16.7233C22.6295 16.6542 22.676 16.6126 22.7459 16.6047C22.8303 16.5951 22.8673 16.6474 22.8879 16.7097Z" fill="#FEFEFD"/>
<path fill-rule="evenodd" clip-rule="evenodd" d="M29.9579 3.43068C29.964 4.88332 28.7684 6.06045 27.2875 6.05997C25.8064 6.05949 24.6011 4.88157 24.595 3.42893C24.5889 1.97635 25.7844 0.799219 27.2654 0.799702C28.7464 0.800184 29.9518 1.9781 29.9579 3.43068Z" fill="white"/>
<path fill-rule="evenodd" clip-rule="evenodd" d="M10.0272 4.16808C10.2191 4.16814 10.3755 4.32092 10.3763 4.50915C10.377 4.69751 10.222 4.85019 10.0301 4.85013C9.83805 4.85006 9.68191 4.69728 9.68112 4.50892C9.68033 4.3207 9.83519 4.16802 10.0272 4.16808Z" fill="white"/>
<path fill-rule="evenodd" clip-rule="evenodd" d="M8.11382 2.84761L8.11577 3.31511L9.16723 3.31544L9.16918 3.78301L8.11773 3.78269L8.11989 4.30151L9.33361 4.30188L9.33578 4.82117L7.47916 4.82059L7.46875 2.32812L9.30802 2.32869L9.31019 2.84798L8.11382 2.84761Z" fill="#0066CC"/>
<path fill-rule="evenodd" clip-rule="evenodd" d="M11.3789 2.32636L11.3871 4.29932L12.3793 4.29961L12.3815 4.8189L10.7447 4.81842L10.7344 2.32617L11.3789 2.32636Z" fill="#0066CC"/>
<path fill-rule="evenodd" clip-rule="evenodd" d="M14.5875 4.19484L14.5876 4.22425C14.5895 4.67779 14.2906 4.83877 13.6296 4.83855C12.8128 4.83828 12.5643 4.64746 12.5608 3.81668C12.5575 3.02841 12.8382 2.8165 13.5735 2.81674C14.3058 2.81698 14.5825 3.01211 14.5856 3.75375L14.5864 3.92747L13.1318 3.927L13.1321 4.00767C13.1335 4.34677 13.2753 4.43576 13.5976 4.43586C13.8795 4.43595 14.0151 4.38924 14.0256 4.19466L14.5875 4.19484ZM13.1304 3.60062L14.0231 3.60091L14.0228 3.53322C14.0176 3.27466 13.9039 3.22787 13.5754 3.22776C13.26 3.22766 13.1291 3.27682 13.1304 3.60062Z" fill="#0066CC"/>
<path fill-rule="evenodd" clip-rule="evenodd" d="M17.3671 4.81479L17.9406 4.81482L17.9309 2.32424L17.3574 2.32422L17.3671 4.81479Z" fill="#0066CC"/>
<path fill-rule="evenodd" clip-rule="evenodd" d="M15.9983 4.40537C16.283 4.40546 16.401 4.34523 16.4061 4.09687L16.9648 4.09706C16.9651 4.67682 16.6982 4.83873 15.9654 4.83849C15.2338 4.83825 14.9724 4.62167 14.9691 3.82719C14.9658 3.03297 15.2251 2.81649 15.9568 2.81673C16.6873 2.81697 16.9561 2.97779 16.9624 3.55266L16.4037 3.55247C16.3953 3.30928 16.2757 3.25017 15.9934 3.25007C15.6514 3.24996 15.5507 3.31165 15.5529 3.82751C15.555 4.3435 15.6562 4.40525 15.9983 4.40537Z" fill="#0066CC"/>
<path fill-rule="evenodd" clip-rule="evenodd" d="M20.3961 4.19289L20.3962 4.2223C20.3981 4.67584 20.0993 4.83681 19.4382 4.83659C18.6216 4.83633 18.3729 4.64551 18.3694 3.81472C18.3661 3.02645 18.647 2.81455 19.3822 2.81478C20.1148 2.81502 20.3911 3.01016 20.3942 3.7518L20.395 3.92552L18.9404 3.92505L18.9407 4.00571C18.9421 4.34481 19.084 4.4338 19.4062 4.43391C19.6881 4.434 19.8237 4.38729 19.8343 4.19271L20.3961 4.19289ZM18.939 3.59867L19.8318 3.59896L19.8315 3.53127C19.8263 3.27271 19.7126 3.22591 19.3842 3.22581C19.0686 3.2257 18.9376 3.27487 18.939 3.59867Z" fill="#0066CC"/>
<path fill-rule="evenodd" clip-rule="evenodd" d="M23.6071 4.09102L24.1658 4.0912C24.1661 4.67096 23.8993 4.8328 23.1665 4.83257C22.4346 4.83233 22.1736 4.61554 22.1703 3.82133C22.1669 3.02711 22.4262 2.81063 23.158 2.81087C23.8882 2.81111 24.1574 2.97193 24.1634 3.5468L23.6048 3.54662C23.5963 3.30342 23.4768 3.24431 23.1943 3.24421C22.8523 3.2441 22.7517 3.3058 22.7539 3.82165C22.7561 4.33744 22.8571 4.3994 23.1992 4.39951C23.4841 4.3996 23.6022 4.33924 23.6071 4.09102Z" fill="#0066CC"/>
<path fill-rule="evenodd" clip-rule="evenodd" d="M22.0222 3.32441C22.0222 3.32441 21.881 3.32272 21.8642 3.32271C21.5488 3.32262 21.3975 3.50303 21.3991 3.89293L21.4029 4.81215L20.8286 4.81198L20.8205 2.84778L21.3948 2.84795L21.396 3.14054C21.534 2.91842 21.7115 2.81467 21.951 2.81282L22.0201 2.81284L22.0222 3.32441Z" fill="#0066CC"/>
<path fill-rule="evenodd" clip-rule="evenodd" d="M26.0938 2.31641L27.1789 2.31675L27.1804 2.65762C27.0594 2.68977 26.9617 2.79144 26.9623 2.93797L26.9682 4.35788L27.3814 4.35801C27.5897 4.35808 27.7682 4.23299 27.8427 4.05536L28.1093 4.05399L28.1125 4.80963L26.1042 4.80899L26.1023 4.3692C26.2277 4.33864 26.3214 4.22273 26.3208 4.09315L26.316 2.94684C26.3154 2.78508 26.2132 2.68665 26.0952 2.65675L26.0938 2.31641Z" fill="#0066CC"/>
<path fill-rule="evenodd" clip-rule="evenodd" d="M24.7196 3.4227C24.7137 2.03072 25.8594 0.902718 27.2785 0.90318C28.6975 0.903642 29.8528 2.0324 29.8586 3.42437C29.8645 4.81648 28.7186 5.94462 27.2996 5.94416C25.8805 5.9437 24.7254 4.81481 24.7196 3.4227ZM25.2528 3.42287C25.2575 4.52582 26.1729 5.4205 27.2974 5.42087C28.422 5.42123 29.3299 4.52715 29.3253 3.4242C29.3207 2.32112 28.4052 1.42664 27.2807 1.42627C26.1561 1.42591 25.2482 2.3198 25.2528 3.42287Z" fill="#0066CC"/>
<path fill-rule="evenodd" clip-rule="evenodd" d="M26.6984 2.10963C26.9313 1.94243 27.2185 1.84392 27.5301 1.84402C28.3121 1.84427 28.9486 2.46622 28.9518 3.23332C28.9538 3.7176 28.7026 4.14404 28.3207 4.39245L28.3184 3.84765L27.7058 3.84745C27.7058 3.84745 27.6417 4.15258 27.3812 4.15249L27.1773 4.15243L27.1727 3.008C27.1722 2.8892 27.2708 2.795 27.3909 2.78901L27.3881 2.10985L26.6984 2.10963Z" fill="#FF6633"/>
</svg>
