<svg width="64" height="64" viewBox="0 0 64 64" fill="none" xmlns="http://www.w3.org/2000/svg">
<path d="M51.8919 10.5714H3.45946C2.98181 10.5714 2.59459 10.9552 2.59459 11.4286V44C2.59459 44.4734 2.98181 44.8571 3.45946 44.8571H9.94595V47.4286H3.45946C1.54885 47.4286 0 45.8935 0 44V11.4286C0 9.53502 1.54885 8 3.45946 8H51.8919C53.8025 8 55.3514 9.53502 55.3514 11.4286V17.4286H52.7568V11.4286C52.7568 10.9552 52.3695 10.5714 51.8919 10.5714Z" fill="#0B0B0B"/>
<path fill-rule="evenodd" clip-rule="evenodd" d="M60.5403 19.1427H12.1079C11.6302 19.1427 11.243 19.5265 11.243 19.9999V52.5713C11.243 53.0447 11.6302 53.4284 12.1079 53.4284H60.5403C61.018 53.4284 61.4052 53.0447 61.4052 52.5713V19.9999C61.4052 19.5265 61.018 19.1427 60.5403 19.1427ZM12.1079 16.5713C10.1973 16.5713 8.64844 18.1063 8.64844 19.9999V52.5713C8.64844 54.4648 10.1973 55.9999 12.1079 55.9999H60.5403C62.4509 55.9999 63.9998 54.4648 63.9998 52.5713V19.9999C63.9998 18.1063 62.4509 16.5713 60.5403 16.5713H12.1079Z" fill="#0B0B0B"/>
<path d="M18.4678 33.0348L19.5285 28.0936H20.9486L19.1302 34.9064H17.8054L16 28.0936H17.4114L18.4678 33.0348Z" fill="#0B0B0B"/>
<path d="M22.8709 34.9064H21.598V28.0936H22.8709V34.9064Z" fill="#0B0B0B"/>
<path d="M28.2264 34.1344C27.9811 34.4213 27.6794 34.6381 27.3215 34.7848C26.9665 34.9283 26.5769 35 26.1526 35C25.4281 35 24.8653 34.7582 24.4641 34.2747C24.0629 33.7881 23.8565 33.0816 23.845 32.1551V30.9291C23.845 29.9902 24.034 29.268 24.4121 28.7627C24.7931 28.2542 25.3473 28 26.0747 28C26.7587 28 27.2739 28.1825 27.6203 28.5475C27.9695 28.9124 28.1716 29.4848 28.2264 30.2647H26.9882C26.9535 29.8311 26.8698 29.5363 26.7371 29.3803C26.6043 29.2213 26.3965 29.1417 26.1136 29.1417C25.7702 29.1417 25.5205 29.2774 25.3646 29.5488C25.2088 29.8202 25.1279 30.2522 25.1222 30.8449V32.0802C25.1222 32.701 25.2073 33.1533 25.3776 33.4372C25.5508 33.7179 25.8337 33.8583 26.2262 33.8583C26.4773 33.8583 26.6808 33.8037 26.8366 33.6945L26.9492 33.6103V32.361H26.0573V31.3222H28.2264V34.1344Z" fill="#0B0B0B"/>
<path d="M33.5343 34.9064H32.2615L30.3998 30.4378V34.9064H29.1269V28.0936H30.3998L32.2658 32.5668V28.0936H33.5343V34.9064Z" fill="#0B0B0B"/>
<path d="M37.8118 31.9586H35.8289V33.7647H38.1755V34.9064H34.5561V28.0936H38.1668V29.24H35.8289V30.8496H37.8118V31.9586Z" fill="#0B0B0B"/>
<path d="M43.0808 29.24H41.5222V34.9064H40.245V29.24H38.7124V28.0936H43.0808V29.24Z" fill="#0B0B0B"/>
<path d="M47.9644 29.24H46.4058V34.9064H45.1286V29.24H43.596V28.0936H47.9644V29.24Z" fill="#0B0B0B"/>
<path d="M51.9518 31.9586H49.969V33.7647H52.3155V34.9064H48.6961V28.0936H52.3069V29.24H49.969V30.8496H51.9518V31.9586Z" fill="#0B0B0B"/>
<path d="M55.7141 33.119C55.7141 32.8414 55.6478 32.6324 55.515 32.492C55.3851 32.3485 55.147 32.2003 54.8006 32.0475C54.1685 31.7885 53.7139 31.486 53.4369 31.1397C53.1598 30.7903 53.0212 30.3786 53.0212 29.9044C53.0212 29.3304 53.2088 28.8703 53.5841 28.5241C53.9622 28.1747 54.4413 28 55.0214 28C55.4082 28 55.7531 28.0889 56.0562 28.2667C56.3592 28.4414 56.5916 28.6894 56.7532 29.0107C56.9177 29.332 57 29.697 57 30.1056H55.7315C55.7315 29.7874 55.668 29.5457 55.541 29.3803C55.4169 29.2119 55.2365 29.1277 54.9998 29.1277C54.7775 29.1277 54.6044 29.1994 54.4803 29.3429C54.3561 29.4833 54.2941 29.6736 54.2941 29.9138C54.2941 30.1009 54.3634 30.2709 54.5019 30.4238C54.6404 30.5735 54.8858 30.7295 55.2379 30.8917C55.8527 31.1319 56.2986 31.4267 56.5757 31.7761C56.8557 32.1254 56.9957 32.57 56.9957 33.1096C56.9957 33.7023 56.821 34.1656 56.4718 34.4993C56.1226 34.8331 55.6478 35 55.0474 35C54.6404 35 54.2696 34.9095 53.9347 34.7286C53.5999 34.5477 53.3373 34.2888 53.1468 33.9519C52.9592 33.615 52.8654 33.2172 52.8654 32.7587H54.1426C54.1426 33.1517 54.2133 33.4372 54.3547 33.615C54.4961 33.7928 54.727 33.8817 55.0474 33.8817C55.4919 33.8817 55.7141 33.6275 55.7141 33.119Z" fill="#0B0B0B"/>
<path d="M17.9883 44.2766C17.9883 43.8358 18.1319 43.4759 18.419 43.1968C18.7062 42.9178 19.0834 42.7783 19.5508 42.7783C20.0125 42.7783 20.3869 42.915 20.6741 43.1885C20.9613 43.4563 21.1105 43.8051 21.1217 44.2348V44.5696C21.1217 45.0216 20.9781 45.3816 20.691 45.6494C20.4038 45.9173 20.0266 46.0512 19.5592 46.0512C19.0863 46.0512 18.7062 45.9145 18.419 45.641C18.1319 45.3676 17.9883 45.0049 17.9883 44.5529V44.2766Z" fill="#0B0B0B"/>
<path d="M23.5795 44.2766C23.5795 43.8358 23.7231 43.4759 24.0102 43.1968C24.2974 42.9178 24.6747 42.7783 25.142 42.7783C25.6037 42.7783 25.9781 42.915 26.2653 43.1885C26.5525 43.4563 26.7017 43.8051 26.7129 44.2348V44.5696C26.7129 45.0216 26.5694 45.3816 26.2822 45.6494C25.995 45.9173 25.6178 46.0512 25.1504 46.0512C24.6775 46.0512 24.2974 45.9145 24.0102 45.641C23.7231 45.3676 23.5795 45.0049 23.5795 44.5529V44.2766Z" fill="#0B0B0B"/>
<path d="M29.1707 44.2766C29.1707 43.8358 29.3143 43.4759 29.6015 43.1968C29.8886 42.9178 30.2659 42.7783 30.7332 42.7783C31.1949 42.7783 31.5694 42.915 31.8565 43.1885C32.1437 43.4563 32.2929 43.8051 32.3042 44.2348V44.5696C32.3042 45.0216 32.1606 45.3816 31.8734 45.6494C31.5863 45.9173 31.209 46.0512 30.7417 46.0512C30.2687 46.0512 29.8886 45.9145 29.6015 45.641C29.3143 45.3676 29.1707 45.0049 29.1707 44.5529V44.2766Z" fill="#0B0B0B"/>
<path d="M34.7619 44.2766C34.7619 43.8358 34.9055 43.4759 35.1927 43.1968C35.4798 42.9178 35.8571 42.7783 36.3244 42.7783C36.7861 42.7783 37.1606 42.915 37.4477 43.1885C37.7349 43.4563 37.8841 43.8051 37.8954 44.2348V44.5696C37.8954 45.0216 37.7518 45.3816 37.4646 45.6494C37.1775 45.9173 36.8002 46.0512 36.3329 46.0512C35.8599 46.0512 35.4798 45.9145 35.1927 45.641C34.9055 45.3676 34.7619 45.0049 34.7619 44.5529V44.2766Z" fill="#0B0B0B"/>
<path d="M40.3531 44.2766C40.3531 43.8358 40.4967 43.4759 40.7839 43.1968C41.0711 42.9178 41.4483 42.7783 41.9156 42.7783C42.3774 42.7783 42.7518 42.915 43.039 43.1885C43.3261 43.4563 43.4753 43.8051 43.4866 44.2348V44.5696C43.4866 45.0216 43.343 45.3816 43.0558 45.6494C42.7687 45.9173 42.3914 46.0512 41.9241 46.0512C41.4511 46.0512 41.0711 45.9145 40.7839 45.641C40.4967 45.3676 40.3531 45.0049 40.3531 44.5529V44.2766Z" fill="#0B0B0B"/>
<path d="M45.9444 44.2766C45.9444 43.8358 46.0879 43.4759 46.3751 43.1968C46.6623 42.9178 47.0395 42.7783 47.5069 42.7783C47.9686 42.7783 48.343 42.915 48.6302 43.1885C48.9173 43.4563 49.0665 43.8051 49.0778 44.2348V44.5696C49.0778 45.0216 48.9342 45.3816 48.6471 45.6494C48.3599 45.9173 47.9827 46.0512 47.5153 46.0512C47.0423 46.0512 46.6623 45.9145 46.3751 45.641C46.0879 45.3676 45.9444 45.0049 45.9444 44.5529V44.2766Z" fill="#0B0B0B"/>
<path d="M51.5356 44.2766C51.5356 43.8358 51.6792 43.4759 51.9663 43.1968C52.2535 42.9178 52.6307 42.7783 53.0981 42.7783C53.5598 42.7783 53.9342 42.915 54.2214 43.1885C54.5086 43.4563 54.6578 43.8051 54.669 44.2348V44.5696C54.669 45.0216 54.5254 45.3816 54.2383 45.6494C53.9511 45.9173 53.5739 46.0512 53.1065 46.0512C52.6336 46.0512 52.2535 45.9145 51.9663 45.641C51.6792 45.3676 51.5356 45.0049 51.5356 44.5529V44.2766Z" fill="#0B0B0B"/>
</svg>
