<svg width="40" height="40" viewBox="0 0 40 40" fill="none" xmlns="http://www.w3.org/2000/svg">
<circle cx="20" cy="20" r="20" fill="white"/>
<path fill-rule="evenodd" clip-rule="evenodd" d="M23.9272 12.0342H24.323C24.323 12.2508 24.5003 12.4263 24.7189 12.4263H27.8855C28.1042 12.4263 28.2814 12.2508 28.2814 12.0342H28.6772C28.7865 12.0342 28.8751 12.122 28.8751 12.2303V22.8172C28.8751 22.9255 28.7865 23.0132 28.6772 23.0132H23.9272C23.8179 23.0132 23.7293 22.9255 23.7293 22.8172V12.2303C23.7293 12.122 23.8179 12.0342 23.9272 12.0342ZM27.8855 11.25H24.7189H23.9272C23.3806 11.25 22.9376 11.6889 22.9376 12.2303V12.7355H12.6665C11.838 12.7355 11.1665 13.4008 11.1665 14.2214V25.4479H10.3333C10.1492 25.4479 10 25.5958 10 25.7781V27.4291C10 28.1585 10.597 28.7499 11.3333 28.7499H28.6667C29.403 28.7499 30 28.1585 30 27.4291V25.7781C30 25.5958 29.8508 25.4479 29.6667 25.4479H28.5V23.7975H28.6772C29.2237 23.7975 29.6668 23.3586 29.6668 22.8172V12.2303C29.6668 11.6889 29.2237 11.25 28.6772 11.25H27.8855ZM27.5 23.7975H23.9272C23.3806 23.7975 22.9376 23.3586 22.9376 22.8172V13.7261H12.6665C12.3903 13.7261 12.1665 13.9479 12.1665 14.2214V25.4479H27.5V23.7975ZM26.3022 22.6209C26.5208 22.6209 26.698 22.4453 26.698 22.2288C26.698 22.0122 26.5208 21.8367 26.3022 21.8367C26.0836 21.8367 25.9063 22.0122 25.9063 22.2288C25.9063 22.4453 26.0836 22.6209 26.3022 22.6209ZM11 26.4385V27.4291C11 27.6115 11.1492 27.7593 11.3333 27.7593H28.6667C28.8508 27.7593 29 27.6115 29 27.4291V26.4385H21.9582V26.5623C21.9582 26.7788 21.781 26.9544 21.5624 26.9544H18.3957C18.1771 26.9544 17.9999 26.7788 17.9999 26.5623V26.4385H11Z" fill="#0066CC"/>
</svg>
