<svg width="51" height="64" viewBox="0 0 51 64" fill="none" xmlns="http://www.w3.org/2000/svg">
<path fill-rule="evenodd" clip-rule="evenodd" d="M25.2633 0C16.8918 0 10.1055 6.78638 10.1055 15.1578V23.5799H6.7368C3.01617 23.5799 0 26.5961 0 30.3167L0 57.2639C0 60.9845 3.01617 64.0007 6.7368 64.0007H43.7892C47.5098 64.0007 50.526 60.9845 50.526 57.2639V30.3167C50.526 26.5961 47.5098 23.5799 43.7892 23.5799H40.4211V15.1578C40.4211 6.78638 33.6347 0 25.2633 0ZM35.6843 23.5799V15.1578C35.6843 10.507 33.0265 4.7368 25.2633 4.7368C17.5 4.7368 14.8423 10.507 14.8423 15.1578V23.5799H35.6843ZM4.7368 28.3167H45.7892V59.2639H4.7368L4.7368 28.3167Z" fill="#0B0B0B"/>
</svg>
