<svg width="32" height="32" viewBox="0 0 32 32" fill="none" xmlns="http://www.w3.org/2000/svg">
<path fill-rule="evenodd" clip-rule="evenodd" d="M16 32C24.8366 32 32 24.8366 32 16C32 7.16345 24.8366 0 16 0C7.16345 0 0 7.16345 0 16C0 24.8366 7.16345 32 16 32ZM12.8001 11.6C12.8001 9.61178 14.4119 8 16.4001 8C18.3883 8 20.0001 9.61178 20.0001 11.6V13.5999H20.8001C21.6838 13.5999 22.4001 14.3162 22.4001 15.1999V21.5999C22.4001 22.4836 21.6838 23.1999 20.8001 23.1999H12.0001C11.1165 23.1999 10.4001 22.4836 10.4001 21.5999V15.1999C10.4001 14.3162 11.1165 13.5999 12.0001 13.5999H12.8001V11.6ZM18.4001 11.6V13.5999H14.4001V11.6C14.4001 10.4954 15.2955 9.6 16.4001 9.6C17.5047 9.6 18.4001 10.4954 18.4001 11.6ZM20.8001 15.1999H12.0001V21.5999H20.8001V15.1999Z" fill="white"/>
</svg>
