<svg width="40" height="40" viewBox="0 0 40 40" fill="none" xmlns="http://www.w3.org/2000/svg">
<path fill-rule="evenodd" clip-rule="evenodd" d="M17.8704 7.5C16.5919 7.5 15.5556 8.53638 15.5556 9.81482C15.5556 9.97336 15.5715 10.1282 15.6019 10.2778H11.8519C10.8291 10.2778 10 11.1069 10 12.1296V13.9815C10 14.6669 10.3724 15.2654 10.9259 15.5856V31.5741C10.9259 32.0854 11.3405 32.5 11.8519 32.5H28.5185C29.0299 32.5 29.4444 32.0854 29.4444 31.5741V15.5856C29.998 15.2654 30.3704 14.6669 30.3704 13.9815V12.1296C30.3704 11.1069 29.5413 10.2778 28.5185 10.2778H24.7685C24.7989 10.1282 24.8148 9.97336 24.8148 9.81482C24.8148 8.53638 23.7784 7.5 22.5 7.5H17.8704ZM22.5015 12.1296C22.501 12.1296 22.5005 12.1296 22.5 12.1296H17.8704C17.8699 12.1296 17.8694 12.1296 17.8689 12.1296H11.8519V13.9815H28.5185V12.1296H22.5015ZM22.5007 10.2778C22.7561 10.2774 22.963 10.0703 22.963 9.81482C22.963 9.55913 22.7557 9.35185 22.5 9.35185H17.8704C17.6147 9.35185 17.4074 9.55913 17.4074 9.81482C17.4074 10.0703 17.6143 10.2774 17.8697 10.2778H22.5007ZM27.5926 30.6481V15.8333H12.7778V30.6481H27.5926ZM16.8056 17.6852C17.3169 17.6852 17.7315 18.0997 17.7315 18.6111L17.7315 27.8704C17.7315 28.3817 17.3169 28.7963 16.8056 28.7963C16.2942 28.7963 15.8796 28.3817 15.8796 27.8704V18.6111C15.8796 18.0997 16.2942 17.6852 16.8056 17.6852ZM20.1852 17.6852C20.6966 17.6852 21.1111 18.0997 21.1111 18.6111V27.8704C21.1111 28.3817 20.6966 28.7963 20.1852 28.7963C19.6738 28.7963 19.2593 28.3817 19.2593 27.8704V18.6111C19.2593 18.0997 19.6738 17.6852 20.1852 17.6852ZM24.4907 18.6111C24.4907 18.0997 24.0762 17.6852 23.5648 17.6852C23.0534 17.6852 22.6389 18.0997 22.6389 18.6111V27.8704C22.6389 28.3817 23.0534 28.7963 23.5648 28.7963C24.0762 28.7963 24.4907 28.3817 24.4907 27.8704L24.4907 18.6111Z" fill="white"/>
</svg>
