<svg width="41" height="40" viewBox="0 0 41 40" fill="none" xmlns="http://www.w3.org/2000/svg">
<path fill-rule="evenodd" clip-rule="evenodd" d="M20.9375 0C31.9832 0 40.9375 8.9543 40.9375 20C40.9375 31.0457 31.9832 40 20.9375 40C9.8918 40 0.9375 31.0457 0.9375 20C0.9375 8.9543 9.8918 0 20.9375 0ZM20.9375 8.78049C16.8964 8.78049 13.6204 12.0565 13.6204 16.0976C13.6204 18.6669 14.9448 20.927 16.9479 22.2309C14.4236 23.3292 12.4583 25.524 11.7039 28.2769C11.5615 28.7966 11.8673 29.3333 12.387 29.4757C12.9066 29.6181 13.4433 29.3123 13.5857 28.7926C14.4494 25.6409 17.3266 23.4146 20.6434 23.4146C23.8501 23.4146 26.655 25.4964 27.6152 28.5033C27.7791 29.0166 28.3281 29.2998 28.8413 29.1359C29.3546 28.972 29.6379 28.423 29.4739 27.9098C28.6873 25.4464 26.9244 23.4736 24.6788 22.3872C26.8201 21.1106 28.2546 18.7716 28.2546 16.0976C28.2546 12.0565 24.9786 8.78049 20.9375 8.78049ZM20.9375 10.7317C23.901 10.7317 26.3034 13.1341 26.3034 16.0976C26.3034 19.061 23.901 21.4634 20.9375 21.4634C17.974 21.4634 15.5716 19.061 15.5716 16.0976C15.5716 13.1341 17.974 10.7317 20.9375 10.7317Z" fill="white"/>
</svg>
