<svg width="24" height="24" viewBox="0 0 24 24" fill="none" xmlns="http://www.w3.org/2000/svg">
<path d="M20.0194 6.16456H4.09634C3.93931 6.16456 3.812 6.29305 3.812 6.45155V17.3572C3.812 17.5157 3.93931 17.6442 4.09634 17.6442H6.22889V18.5052H4.09634C3.4682 18.5052 2.95898 17.9912 2.95898 17.3572V6.45155C2.95898 5.81755 3.4682 5.30359 4.09634 5.30359H20.0194C20.6475 5.30359 21.1567 5.81755 21.1567 6.45155V8.46049H20.3037V6.45155C20.3037 6.29305 20.1764 6.16456 20.0194 6.16456Z" fill="#0066CC"/>
<path d="M17.0604 3.48597H1.13736C0.980323 3.48597 0.85302 3.61446 0.85302 3.77296V14.6786C0.85302 14.8371 0.980323 14.9656 1.13736 14.9656H3.26991V15.8266H1.13736C0.509213 15.8266 0 15.3126 0 14.6786V3.77296C0 3.13896 0.509213 2.625 1.13736 2.625H17.0604C17.6885 2.625 18.1978 3.13896 18.1978 3.77296V5.7819H17.3447V3.77296C17.3447 3.61446 17.2174 3.48597 17.0604 3.48597Z" fill="#0066CC"/>
<path fill-rule="evenodd" clip-rule="evenodd" d="M22.8631 9.03443H6.94009C6.78306 9.03443 6.65575 9.16292 6.65575 9.32143V20.2271C6.65575 20.3856 6.78306 20.5141 6.94009 20.5141H22.8631C23.0202 20.5141 23.1475 20.3856 23.1475 20.2271V9.32143C23.1475 9.16292 23.0202 9.03443 22.8631 9.03443ZM6.94009 8.17346C6.31195 8.17346 5.80273 8.68742 5.80273 9.32143V20.2271C5.80273 20.8611 6.31195 21.375 6.94009 21.375H22.8631C23.4913 21.375 24.0005 20.8611 24.0005 20.2271V9.32143C24.0005 8.68742 23.4913 8.17346 22.8631 8.17346H6.94009Z" fill="#0066CC"/>
</svg>
