<svg width="135" height="32" viewBox="0 0 135 32" fill="none" xmlns="http://www.w3.org/2000/svg">
<rect width="135" height="32" fill="#2F2F2F"/>
<g clip-path="url(#clip0)">
<rect width="375" height="2580" transform="translate(-120 -8)" fill="#E7E7E7"/>
<ellipse cx="67.5" cy="210" rx="731.5" ry="250" fill="#E7391E"/>
<mask id="mask0" mask-type="alpha" maskUnits="userSpaceOnUse" x="-748" y="-235" width="1631" height="500">
<ellipse cx="67.5" cy="15" rx="815.5" ry="250" fill="#0066CC"/>
</mask>
<g mask="url(#mask0)">
<ellipse cx="67.5" cy="15" rx="731.5" ry="250" fill="white"/>
</g>
<g filter="url(#filter0_d)">
<rect x="-120" y="-8" width="375" height="48" fill="white"/>
</g>
<g clip-path="url(#clip1)">
<path fill-rule="evenodd" clip-rule="evenodd" d="M119.337 0C127.859 0 134.768 7.08517 134.768 15.8252C134.768 24.5653 127.859 31.6505 119.337 31.6505C110.814 31.6505 103.905 24.5653 103.905 15.8252C103.905 7.08517 110.814 0 119.337 0ZM119.337 3.28436C112.583 3.28436 107.108 8.89925 107.108 15.8252C107.108 22.7512 112.583 28.3661 119.337 28.3661C126.09 28.3661 131.565 22.7512 131.565 15.8252C131.565 8.89925 126.09 3.28436 119.337 3.28436ZM37.132 11.9723C41.5307 11.9723 43.1872 13.1965 43.1872 17.8532V18.9446H34.4509V19.4504C34.4509 21.5798 35.3005 22.1379 37.2361 22.1379C38.9285 22.1379 39.7445 21.8445 39.8134 20.6224H43.1872V20.8077C43.1872 23.6552 41.3885 24.667 37.4177 24.667C32.5128 24.667 31.0256 23.4691 31.0256 18.2529C31.0256 13.3027 32.7162 11.9723 37.132 11.9723ZM51.4265 11.9719C55.812 11.9719 57.4243 12.9821 57.4468 16.5907H54.0904C54.0468 15.0642 53.3303 14.6925 51.6348 14.6925C49.5801 14.6925 48.9739 15.0805 48.9739 18.3199C48.9739 21.5587 49.5803 21.9465 51.6348 21.9465C53.3446 21.9465 54.0558 21.5684 54.0914 20.0091H57.4471C57.4343 23.65 55.8279 24.6668 51.4265 24.6668C47.0319 24.6668 45.4691 23.3069 45.4691 18.3191C45.4691 13.332 47.0319 11.9719 51.4265 11.9719ZM71.9532 11.9723C76.3521 11.9723 78.0087 13.1965 78.0087 17.8532V18.9446H69.2724V19.4504C69.2724 21.5798 70.1219 22.1379 72.0572 22.1379C73.7502 22.1379 74.5657 21.8445 74.6348 20.6224H78.0087V20.8077C78.0087 23.6552 76.2097 24.667 72.2394 24.667C67.334 24.667 65.8468 23.4691 65.8468 18.2529C65.8468 13.3027 67.5374 11.9723 71.9532 11.9723ZM94.5987 11.9719C98.9845 11.9719 100.597 12.9821 100.619 16.5907H97.2631C97.2186 15.0642 96.5027 14.6925 94.807 14.6925C92.7525 14.6925 92.1461 15.0805 92.1461 18.3199C92.1461 21.5585 92.7525 21.9465 94.807 21.9465C96.5173 21.9465 97.2283 21.5684 97.2642 20.0091H100.62C100.606 23.6492 99.0001 24.6663 94.5987 24.6663C90.2047 24.6663 88.6416 23.3062 88.6416 18.3191C88.6416 13.332 90.2044 11.9719 94.5987 11.9719ZM11.5837 8.87911V12.1406H4.39665V15.0763H10.7129V18.0128H4.39665V21.272H11.6883V24.5337H0.533203V8.87911H11.5837ZM23.9802 8.87883V21.2722H29.9421V24.5337H20.1075V8.87883H23.9802ZM63.2736 8.87911V24.5337H59.8216V8.87911H63.2736ZM87.7791 11.9721V15.1856C87.7791 15.1856 86.9303 15.1756 86.8291 15.1756C84.9343 15.1756 84.0204 16.3092 84.0204 18.7588V24.5329H80.5682V12.1936H84.0204V14.0321C84.8549 12.6363 85.9247 11.9844 87.3635 11.9721H87.7791ZM118.709 8.87878V11.0201C117.981 11.2213 117.392 11.86 117.392 12.7808V21.6973H119.873C121.125 21.6973 122.2 20.9119 122.652 19.796L124.254 19.7874V24.5329H112.19V21.7706C112.944 21.5786 113.51 20.8488 113.51 20.0366V12.8375C113.51 11.8219 112.898 11.2032 112.19 11.0158V8.87878H118.709ZM37.1338 14.5538C35.239 14.5538 34.4509 14.8608 34.4509 16.8953H39.8134V16.4696C39.7878 14.8463 39.1058 14.5538 37.1338 14.5538ZM71.9545 14.5538C70.0602 14.5538 69.2724 14.8608 69.2724 16.8953H74.6348V16.4696C74.6087 14.8463 73.9272 14.5538 71.9545 14.5538Z" fill="#0066CC"/>
<path fill-rule="evenodd" clip-rule="evenodd" d="M15.8336 20.4434C16.9865 20.4434 17.9211 21.4018 17.9211 22.5844C17.9211 23.7669 16.9865 24.7248 15.8336 24.7248C14.6807 24.7248 13.7461 23.7669 13.7461 22.5844C13.7461 21.4018 14.6807 20.4434 15.8336 20.4434Z" fill="#FF6633"/>
<path fill-rule="evenodd" clip-rule="evenodd" d="M115.822 7.57954C117.227 6.5296 118.954 5.91016 120.825 5.91016C125.522 5.91016 129.33 9.81497 129.33 14.6317C129.33 17.6729 127.811 20.3511 125.51 21.9121V18.4907H121.83C121.83 18.4907 121.437 20.4073 119.872 20.4073H118.648L118.648 13.2206C118.648 12.4746 119.244 11.8823 119.965 11.8449L119.965 7.57954H115.822Z" fill="#FF6633"/>
</g>
</g>
<defs>
<filter id="filter0_d" x="-124" y="-8" width="383" height="56" filterUnits="userSpaceOnUse" color-interpolation-filters="sRGB">
<feFlood flood-opacity="0" result="BackgroundImageFix"/>
<feColorMatrix in="SourceAlpha" type="matrix" values="0 0 0 0 0 0 0 0 0 0 0 0 0 0 0 0 0 0 127 0"/>
<feOffset dy="4"/>
<feGaussianBlur stdDeviation="2"/>
<feColorMatrix type="matrix" values="0 0 0 0 0 0 0 0 0 0 0 0 0 0 0 0 0 0 0.05 0"/>
<feBlend mode="normal" in2="BackgroundImageFix" result="effect1_dropShadow"/>
<feBlend mode="normal" in="SourceGraphic" in2="effect1_dropShadow" result="shape"/>
</filter>
<clipPath id="clip0">
<rect width="375" height="2580" fill="white" transform="translate(-120 -8)"/>
</clipPath>
<clipPath id="clip1">
<rect width="134.857" height="32" fill="white"/>
</clipPath>
</defs>
</svg>
